<?xml version="1.0" encoding="UTF-8"?>
<svg version="1.1" xmlns="http://www.w3.org/2000/svg" width="2388" height="1668">
<path d="M0 0 C5.44994786 5.26339708 7.22319302 11.09747338 7.4375 18.5625 C6.96035507 31.37085926 3.40196577 41.90984631 -5.83203125 51.0546875 C-7.73364707 52.80614296 -9.67276613 54.48092957 -11.64453125 56.15625 C-14.24453096 58.46736086 -15.85462366 60.10209331 -16.30078125 63.625 C-16.30464844 64.49125 -16.30851562 65.3575 -16.3125 66.25 C-16.32925781 67.11625 -16.34601563 67.9825 -16.36328125 68.875 C-16.16766615 71.24132897 -16.16766615 71.24132897 -14.91943359 72.91772461 C-10.98123342 75.65122224 -5.80700181 73.97502108 -1.29931641 73.30517578 C9.34024445 71.38077616 19.58133491 67.60231265 29.8125 64.1875 C32.10953352 63.43274419 34.40705719 62.67947841 36.70507812 61.92773438 C39.92508123 60.87435292 43.14422072 59.81894685 46.35957336 58.75144958 C47.77837044 58.28074791 47.77837044 58.28074791 49.22583008 57.80053711 C50.05391678 57.52455185 50.88200348 57.24856659 51.73518372 56.96421814 C58.46662013 54.84143493 64.9079285 55.02807617 71.9375 55 C73.19369141 54.979375 74.44988281 54.95875 75.74414062 54.9375 C86.53898128 54.89291625 99.69818799 55.34523117 108 63.25 C111.78778392 68.63280082 112.54997815 73.38607119 111.9375 79.8125 C111.87731689 80.59117432 111.81713379 81.36984863 111.75512695 82.17211914 C110.00607121 102.31394166 104.85268814 120.84117783 89 134.25 C76.16171846 143.55734732 61.77186645 147.80274056 46.625 151.75 C41.7573271 153.02497407 36.8970773 154.32102973 32.05187988 155.67919922 C30.67319483 156.06272776 29.29217137 156.43793885 27.90905762 156.80517578 C17.42455177 159.48955763 17.42455177 159.48955763 10.08105469 166.96923828 C8.02444226 171.30818889 6.2295896 175.66074307 4.625 180.1875 C4.24633789 181.23164062 3.86767578 182.27578125 3.47753906 183.3515625 C2.29653719 186.64381419 1.14363368 189.94459592 0 193.25 C-0.36448242 194.29559082 -0.72896484 195.34118164 -1.10449219 196.41845703 C-12.10120325 228.29493601 -16.24744199 260.00870079 -16.3125 293.625 C-16.31617584 294.54020416 -16.31985168 295.45540833 -16.32363892 296.39834595 C-16.93199499 319.14367302 -16.93199499 319.14367302 -10 340.25 C-6.42563237 342.51746905 -3.28459614 342.45034493 0.84472656 341.78466797 C4.76450587 340.81227142 8.27048753 339.103236 11.875 337.3125 C12.69218506 336.91571045 13.50937012 336.5189209 14.35131836 336.11010742 C22.42105509 332.14147334 30.27642713 327.81586188 38.06591797 323.32666016 C39.79221744 322.3656679 41.5677966 321.49445742 43.34765625 320.63671875 C45.92886117 319.34793148 47.97355614 318.30115659 50 316.25 C51.31552741 311.61470049 50.46104084 307.64720009 48.9765625 303.1484375 C40.38180922 273.84491059 54.15881824 236.81011799 68 211.25 C71.02705584 206.03102073 74.44465942 201.11913093 78 196.25 C78.48259277 195.58097656 78.96518555 194.91195312 79.46240234 194.22265625 C92.26967636 176.52563175 105.95427858 163.27249607 124.1875 151.3125 C125.61825369 150.36586154 127.04859464 149.41859894 128.47851562 148.47070312 C132.64230604 145.71502616 136.81806506 142.97804852 141 140.25 C141.65650543 139.82140686 142.31301086 139.39281372 142.9894104 138.95123291 C144.86579509 137.72846681 146.74476612 136.50980587 148.625 135.29296875 C150.22794922 134.25499146 150.22794922 134.25499146 151.86328125 133.19604492 C180.65497914 115.33344966 215.71663584 114.56382176 248.13720703 121.96630859 C272.31879187 127.89970243 293.79586899 136.32896688 312.515625 152.96875 C314.67943239 154.83645743 316.96734102 156.53096052 319.25 158.25 C337.5686018 172.92266649 346.15028116 196.65871013 348.75 219.40625 C349.71151101 234.18948183 349.92635928 248.12558783 345 262.25 C344.68417969 263.16652344 344.36835937 264.08304688 344.04296875 265.02734375 C338.52229521 278.11568215 325.77529359 286.33854366 314 293.25 C312.57247166 294.10472596 311.14540418 294.96022199 309.71875 295.81640625 C305.50177363 298.33394816 301.25838957 300.80326957 297 303.25 C296.03449219 303.80558594 295.06898437 304.36117188 294.07421875 304.93359375 C291.40793682 306.42654979 288.71525704 307.84810098 286 309.25 C284.845 309.86359375 283.69 310.4771875 282.5 311.109375 C251.94943972 326.7644273 216.76216252 332.27734651 182.83691406 332.82128906 C175.04693395 332.9688748 167.61185125 333.51222669 160 335.25 C158.27539402 344.01674708 159.95696626 350.29503619 164.62890625 357.90234375 C168.37674447 363.23068994 172.5913486 368.1057598 176.875 373 C184.98199758 382.28006039 191.39119019 392.4654256 197.625 403.0625 C201.26313236 409.23627628 205.24787523 414.8629358 210 420.25 C210.50402344 420.83652344 211.00804687 421.42304687 211.52734375 422.02734375 C221.69988049 433.02817865 237.20059514 444.20688384 252.40234375 445.55078125 C276.62256427 445.63106927 294.76901642 436.89746258 315 424.25 C316.06476563 423.59257813 317.12953125 422.93515625 318.2265625 422.2578125 C326.39061582 416.77298411 333.03105005 409.40706991 339.86328125 402.39453125 C343.08765162 399.10663377 346.39359192 396.11104552 350 393.25 C349.67 391.991875 349.34 390.73375 349 389.4375 C339.91969252 342.86009547 362.5242141 283.16382606 375.90429688 238.91162109 C377.01324966 235.20572227 378.07934853 231.48933438 379.140625 227.76953125 C393.10262038 179.67926629 393.10262038 179.67926629 410.703125 168.5390625 C429.00647222 158.8522033 455.48748618 163.80818126 474.5625 169.625 C486.4643507 173.48324412 495.95253466 177.92263222 502 189.25 C507.08792088 204.51376265 500.79684203 222.10629827 496.67218018 236.84008789 C495.63966398 240.54188298 494.62341464 244.24812779 493.60490417 247.95379639 C491.59282617 255.27368063 489.57597284 262.59213841 487.5324707 269.90332031 C483.58272432 284.02836694 483.58272432 284.02836694 480 298.25 C480.73597412 297.31426147 480.73597412 297.31426147 481.48681641 296.35961914 C485.53217657 291.23262086 489.66817269 286.18259689 493.875 281.1875 C494.33165039 280.63497559 494.78830078 280.08245117 495.25878906 279.51318359 C502.60774307 270.85859068 511.20063754 264.06518045 520.75 258 C521.74080566 257.36376709 522.73161133 256.72753418 523.75244141 256.07202148 C546.085779 241.82855084 567.18305123 229.67946836 593 223.25 C593.66757324 223.07065918 594.33514648 222.89131836 595.02294922 222.70654297 C604.57098908 220.16628507 614.0446327 219.92415295 623.875 219.8125 C625.7302832 219.77890381 625.7302832 219.77890381 627.62304688 219.74462891 C635.47666086 219.76476094 643.56856837 220.24373843 649.67944336 225.76831055 C653.8438924 230.60612858 654.57674434 234.21043226 654.546875 240.453125 C653.73975565 246.05683933 651.49553671 250.78400599 649.20410156 255.92358398 C633.38125549 291.4693224 630.1882498 335.42101129 636.546875 373.52734375 C637.56756205 379.6602651 637.69508794 384.73626063 634.53613281 390.19360352 C628.97563459 397.63735376 619.27955536 401.13277976 610.9375 404.4375 C597.69574014 409.86941077 584.80661134 415.86402536 572 422.25 C570.97116699 422.76240234 569.94233398 423.27480469 568.88232422 423.80273438 C553.00040345 431.76492393 539.048642 440.05112969 526.12890625 452.33203125 C522.46611733 455.79402669 518.56516965 458.93170685 514.63671875 462.0859375 C511.07687681 465.00764481 507.6808734 468.09314466 504.2890625 471.20703125 C502 473.25 502 473.25 499.484375 475.1796875 C496.78911343 477.42573881 494.78709461 479.80329261 492.625 482.5625 C489.51802312 486.4410771 486.35568576 490.03739372 482.77270508 493.47460938 C481.04891195 495.20101395 479.47811029 496.99002259 477.90234375 498.8515625 C474.3817325 502.90491004 470.61930075 506.65343195 466.78051758 510.40380859 C455.21983652 521.6999905 445.81651189 533.12405028 437.2109375 546.77734375 C432.24739265 554.62570261 426.88691135 562.17088477 421.1875 569.5 C401.42880092 594.93956793 390.70066097 620.92907587 380.65625 651.328125 C380.27810654 652.47093933 379.89996307 653.61375366 379.51036072 654.79119873 C377.60415916 660.55869202 375.71095573 666.32997764 373.83813477 672.10839844 C373.1331545 674.25982437 372.42800247 676.41119402 371.72265625 678.5625 C371.24820068 680.04668427 371.24820068 680.04668427 370.76416016 681.56085205 C368.75164394 687.66419961 366.62321056 692.44587837 362.1875 697.1875 C358.84765968 698.80970816 356.53179766 698.13294941 353 697.25 C349.26625985 695.23176208 348.35753031 693.18021414 347 689.25 C346.53820243 687.02251599 346.13760058 684.78192199 345.78125 682.53515625 C345.67784302 681.88413437 345.57443604 681.23311249 345.46789551 680.56236267 C345.24988514 679.17851329 345.03490244 677.79418396 344.82275391 676.40942383 C344.509795 674.37613784 344.1834599 672.34536042 343.85546875 670.31445312 C343.16731021 665.96843045 342.56754849 661.6132822 342 657.25 C341.90044006 656.50447876 341.80088013 655.75895752 341.69830322 654.99084473 C339.2839388 636.0978571 339.76539209 617.05084171 339.8626709 598.04510498 C339.88344665 593.54571441 339.89233114 589.04630011 339.90234375 584.546875 C339.92353864 575.78118649 339.95749107 567.015611 340 558.25 C339.13552246 558.86198242 338.27104492 559.47396484 337.38037109 560.10449219 C336.21987635 560.91883329 335.05922333 561.73294887 333.8984375 562.546875 C333.33181396 562.94890137 332.76519043 563.35092773 332.18139648 563.76513672 C322.72976639 570.37118708 311.98367817 574.41431848 300.97460938 577.66650391 C299.67793021 578.04967196 298.38472427 578.44483731 297.09570312 578.85302734 C259.38223543 590.54037355 208.27205938 580.35745466 174.1875 562.48828125 C172.79080671 561.74379859 171.39500413 560.99764301 170 560.25 C169.2471875 559.85087402 168.494375 559.45174805 167.71875 559.04052734 C158.31520816 554.03510039 149.40719028 548.83174764 141 542.25 C140.2066626 541.63294189 139.4133252 541.01588379 138.59594727 540.38012695 C131.17616308 534.46420792 124.40579861 528.02820481 117.70166016 521.32226562 C115.880792 519.50577807 114.04447238 517.70595227 112.20703125 515.90625 C101.97854026 505.77889023 93.86731084 495.23552529 87.8125 482.0625 C87.39887207 481.18118408 86.98524414 480.29986816 86.55908203 479.3918457 C82.66760037 470.90306699 79.68358329 462.18436876 77 453.25 C71.73711801 458.88669417 66.52500105 464.50016597 61.75 470.5625 C46.86347308 488.92520344 29.46681881 500.88839915 9 512.25 C8.2471875 512.6723291 7.494375 513.0946582 6.71875 513.52978516 C4.54901275 514.74214495 2.37058324 515.93686736 0.1875 517.125 C-0.43229736 517.46990479 -1.05209473 517.81480957 -1.69067383 518.17016602 C-12.84104612 524.121733 -25.16756256 527.28789836 -37.35058594 530.36254883 C-39.63191626 530.93924837 -41.90975423 531.5284602 -44.1875 532.11914062 C-56.60199832 535.30952018 -68.49120661 537.63259681 -81.375 537.5625 C-82.46699707 537.55686035 -83.55899414 537.5512207 -84.68408203 537.54541016 C-102.44220425 537.27878754 -115.05746166 532.63806453 -128 520.25 C-132.36110354 526.61225206 -136.32690436 533.13759978 -140.1875 539.8125 C-152.76234798 561.26889655 -166.94420701 580.0754953 -186 596.25 C-186.95648437 597.07242188 -187.91296875 597.89484375 -188.8984375 598.7421875 C-194.58222119 603.61287557 -200.33516248 608.39546644 -206.1875 613.0625 C-206.72068848 613.49401367 -207.25387695 613.92552734 -207.80322266 614.37011719 C-240.45549894 640.14043503 -287.66399841 650.14980609 -328.296875 645.73828125 C-338.80209942 644.33923102 -349.01663952 641.46139178 -358.0625 635.8125 C-359.031875 635.296875 -360.00125 634.78125 -361 634.25 C-364.17523396 635.31747694 -366.54668499 637.41349871 -369.1081543 639.52392578 C-420.36925753 681.70666857 -481.76531994 688.09031271 -546.25488281 682.58203125 C-551.54193444 681.99592184 -556.76325841 681.18103917 -562 680.25 C-562.73416138 680.12133545 -563.46832275 679.9926709 -564.22473145 679.86010742 C-604.49419075 672.77470349 -604.49419075 672.77470349 -623 665.25 C-623.75216797 664.95158203 -624.50433594 664.65316406 -625.27929688 664.34570312 C-644.9831362 656.42733779 -662.24476099 645.17806799 -679 632.25 C-680.48113281 631.12078125 -680.48113281 631.12078125 -681.9921875 629.96875 C-697.6366653 617.77305484 -709.75021147 604.12793247 -719.89208984 587.10302734 C-720.8552494 585.49210159 -721.8416451 583.89511289 -722.83203125 582.30078125 C-739.81412047 554.42152002 -755.6219289 517.35856782 -755 484.25 C-755.66 484.25 -756.32 484.25 -757 484.25 C-757.25007812 484.94609375 -757.50015625 485.6421875 -757.7578125 486.359375 C-761.99192086 496.21233156 -769.28181177 505.15130482 -775.48364258 513.8581543 C-778.75587585 518.45961885 -781.94765345 523.10317091 -785.0625 527.8125 C-789.8134271 534.99153119 -794.65730496 542.1012069 -799.56591797 549.17333984 C-801.03587229 551.30194582 -802.48895609 553.44145227 -803.94140625 555.58203125 C-813.18601193 569.09442464 -823.12085994 580.09963861 -836 590.25 C-838.24970961 592.08027223 -840.47418768 593.93841161 -842.6875 595.8125 C-843.27200928 596.30741943 -843.85651855 596.80233887 -844.45874023 597.31225586 C-848.48649669 600.78708695 -852.22414328 604.46601009 -855.91992188 608.29003906 C-867.28758693 620.03735992 -879.31568601 627.57957684 -893.80810547 634.99853516 C-900.25440116 638.29888067 -906.54931332 641.80282451 -912.8125 645.4375 C-921.39007266 650.38946013 -930.0386957 655.03159508 -939 659.25 C-939.82483887 659.63849121 -940.64967773 660.02698242 -941.49951172 660.42724609 C-944.16091692 661.6719784 -946.8287282 662.90159726 -949.5 664.125 C-950.32508057 664.5068042 -951.15016113 664.8886084 -952.00024414 665.28198242 C-970.38535844 673.57440587 -995.37295351 673.96980166 -1014.66015625 668.14453125 C-1017.53101867 666.96497337 -1020.25080505 665.68816268 -1023 664.25 C-1024.44163589 663.52650492 -1025.88440407 662.8052629 -1027.328125 662.0859375 C-1028.55208333 661.47395833 -1029.77604167 660.86197917 -1031 660.25 C-1031.29543701 660.86705811 -1031.59087402 661.48411621 -1031.89526367 662.11987305 C-1038.69272957 676.22986316 -1045.97782018 689.7689335 -1054.4921875 702.91796875 C-1055.89735646 705.0912482 -1057.27902122 707.27770421 -1058.65625 709.46875 C-1067.09741745 722.72990333 -1077.84753266 733.20796432 -1089.3203125 743.83203125 C-1095.21743921 749.29392921 -1100.77870095 754.92376679 -1106.04296875 760.99609375 C-1116.59211106 773.14550515 -1127.39927515 783.46387381 -1140.96875 792.23046875 C-1148.70220356 797.38278253 -1155.88701097 803.27323649 -1162.9375 809.3125 C-1188.97636837 831.05664593 -1221.44945977 844.47597601 -1254.8125 848.9375 C-1256.34581638 849.15088044 -1257.87902028 849.36507073 -1259.41210938 849.58007812 C-1270.06655784 851.056813 -1280.61792648 852.39372949 -1291.390625 852.453125 C-1292.24955353 852.46013931 -1293.10848206 852.46715363 -1293.99343872 852.47438049 C-1296.74567992 852.49176395 -1299.49770594 852.49823144 -1302.25 852.5 C-1303.19063293 852.50067474 -1304.13126587 852.50134949 -1305.10040283 852.50204468 C-1318.94541142 852.48625369 -1332.40515942 852.10034683 -1346 849.25 C-1346.80308594 849.0943457 -1347.60617187 848.93869141 -1348.43359375 848.77832031 C-1363.0716617 845.88192535 -1376.43393249 840.34803162 -1390 834.25 C-1391.53285645 833.57179199 -1391.53285645 833.57179199 -1393.09667969 832.87988281 C-1396.13806384 831.52633681 -1399.16462066 830.14432903 -1402.1875 828.75 C-1403.53001831 828.14744385 -1403.53001831 828.14744385 -1404.8996582 827.53271484 C-1417.80493805 821.42276153 -1428.01092899 811.76022966 -1437.96704102 801.72900391 C-1439.68479838 800.00271504 -1441.42048083 798.29600668 -1443.15820312 796.58984375 C-1468.94717602 770.96454133 -1476.83399013 741.48183409 -1477.11767578 705.60717773 C-1477.12974453 700.48721397 -1477.08091685 695.36928185 -1477 690.25 C-1476.98743164 689.4142041 -1476.97486328 688.5784082 -1476.96191406 687.71728516 C-1476.38153459 659.16616853 -1472.0253973 627.20201022 -1451 606.25 C-1450.37480469 605.56550781 -1449.74960938 604.88101563 -1449.10546875 604.17578125 C-1443.49793449 598.16686559 -1436.944304 593.5736652 -1430 589.25 C-1429.43474609 588.89421875 -1428.86949219 588.5384375 -1428.28710938 588.171875 C-1419.34551723 582.69451112 -1411.44597501 580.59079592 -1401 582.25 C-1393.5015494 584.5798058 -1388.95878413 588.4131224 -1384.8984375 595.05078125 C-1383.7298499 597.91128047 -1383.66219238 600.28803255 -1383.625 603.375 C-1383.59664062 604.42945313 -1383.56828125 605.48390625 -1383.5390625 606.5703125 C-1384.63596828 615.32696709 -1389.08662951 622.32089251 -1393.9375 629.5 C-1403.6103699 644.33465176 -1408.66732513 660.36595309 -1407 678.25 C-1405.26710715 685.90152598 -1405.26710715 685.90152598 -1401 692.25 C-1384.99921741 694.09624414 -1369.58340711 683.98651281 -1356.32910156 676.30834961 C-1352.01258608 673.80928258 -1347.65104952 671.40935689 -1343.25 669.0625 C-1342.61674805 668.7226709 -1341.98349609 668.3828418 -1341.33105469 668.03271484 C-1337.87592612 666.19305324 -1334.38711626 664.52748931 -1330.8125 662.9375 C-1324.21875409 659.69557493 -1319.18699648 654.34188935 -1314 649.25 C-1313.28199219 648.5590625 -1312.56398438 647.868125 -1311.82421875 647.15625 C-1309.3893766 644.77875959 -1307.14935397 642.4427148 -1305.0625 639.75 C-1303.25579568 637.56005537 -1301.51392555 635.88966906 -1299.37109375 634.05078125 C-1285.51614981 622.04013887 -1273.95365976 610.0503817 -1264.06518555 594.56567383 C-1258.70855512 586.17754886 -1252.82960011 578.26173574 -1246.6875 570.4375 C-1246.22142334 569.84308105 -1245.75534668 569.24866211 -1245.27514648 568.63623047 C-1242.97850178 565.71924356 -1240.65901913 562.82918539 -1238.2734375 559.984375 C-1226.95790493 546.33311415 -1219.11102744 530.53066276 -1211.00390625 514.84765625 C-1208.15470407 509.36273678 -1205.16771697 503.99439743 -1202 498.6875 C-1189.20519747 477.31396858 -1189.20519747 477.31396858 -1180 454.25 C-1179.72736328 453.3729541 -1179.45472656 452.4959082 -1179.17382812 451.59228516 C-1161.18931508 392.42163505 -1158.20168431 329.17558706 -1167.375 268.3125 C-1167.52180206 267.32713257 -1167.66860413 266.34176514 -1167.81985474 265.32653809 C-1172.84881513 231.90520332 -1184.09119551 205.28796144 -1211.52734375 184.04296875 C-1217.64633699 179.60597365 -1222.39179475 177.00599472 -1229.984375 176.5546875 C-1233.11715981 176.08112701 -1234.84528052 174.47205446 -1237 172.25 C-1238.3899408 169.4701184 -1238.18488204 167.3313674 -1238 164.25 C-1236.86421112 161.19210687 -1235.27105191 159.52105191 -1233 157.25 C-1232.16143291 156.21254199 -1231.32839601 155.17059741 -1230.5 154.125 C-1210.25540804 130.61355456 -1178.89123152 126.20783705 -1150 121.25 C-1149.27159912 121.1247998 -1148.54319824 120.99959961 -1147.79272461 120.87060547 C-1131.03672598 118.38971466 -1112.41805081 119.05251595 -1096 123.25 C-1095.03578125 123.48638184 -1094.0715625 123.72276367 -1093.078125 123.96630859 C-1070.89663553 129.47448639 -1054.62313255 135.73339333 -1042.33203125 156.11328125 C-1035.01226869 168.79690572 -1029.04872958 182.17668671 -1025 196.25 C-1024.75636719 197.06984375 -1024.51273438 197.8896875 -1024.26171875 198.734375 C-1023.18277325 202.63913016 -1022.79777188 206.20543753 -1023 210.25 C-1022.34 210.25 -1021.68 210.25 -1021 210.25 C-1020.76410156 209.46625 -1020.52820313 208.6825 -1020.28515625 207.875 C-1010.9351175 181.50163842 -993.79402525 156.86589605 -972 139.25 C-970.99582031 138.41984375 -969.99164062 137.5896875 -968.95703125 136.734375 C-939.26456404 112.52986524 -904.67559834 96.9561693 -865.81762695 100.76953125 C-841.68848257 103.54292858 -816.61806489 113.96041895 -801 133.25 C-785.76760554 157.15947572 -794.1560749 189.72501803 -799.703125 215.578125 C-803.68353261 233.33237712 -811.33435876 250.2557372 -822.265625 264.8828125 C-824.44311987 267.85479874 -826.40481223 270.9516772 -828.375 274.0625 C-832.34883655 280.29738489 -836.48448787 286.40254623 -840.73730469 292.45166016 C-842.12402243 294.42663365 -843.50330973 296.40669976 -844.8828125 298.38671875 C-853.08451365 310.12381814 -861.49205994 321.52575029 -871 332.25 C-869.97229492 332.03065796 -869.97229492 332.03065796 -868.92382812 331.80688477 C-865.78327437 331.13864236 -862.64165694 330.47553574 -859.5 329.8125 C-857.88351562 329.46735352 -857.88351562 329.46735352 -856.234375 329.11523438 C-855.17734375 328.89287109 -854.1203125 328.67050781 -853.03125 328.44140625 C-852.06767578 328.23717041 -851.10410156 328.03293457 -850.11132812 327.82250977 C-817.13569973 321.75472504 -778.75880343 325.44373152 -750 343.25 C-747.14691448 345.42260823 -744.50702842 347.68690386 -742 350.25 C-741.10861328 349.06857422 -741.10861328 349.06857422 -740.19921875 347.86328125 C-731.94451664 336.98905554 -723.2165737 326.60441708 -714.03515625 316.5 C-712.22622457 314.50010625 -710.45108199 312.47730568 -708.6875 310.4375 C-701.23212319 301.90716188 -693.77523884 293.44980302 -685 286.25 C-684.29536621 285.65678955 -683.59073242 285.0635791 -682.86474609 284.45239258 C-676.51231359 279.20815815 -669.85113875 274.90685686 -662.75 270.75 C-661.6468042 270.09781494 -660.5436084 269.44562988 -659.40698242 268.77368164 C-657.23819864 267.49399226 -655.0673001 266.21787841 -652.89404297 264.94580078 C-650.50680049 263.5469661 -648.12812659 262.13558573 -645.75390625 260.71484375 C-608.27682692 238.63697295 -566.50085776 234.23104865 -524.77075195 244.97949219 C-523.17926791 245.39833601 -521.58942533 245.82341037 -520 246.25 C-520.92425781 245.66734375 -521.84851562 245.0846875 -522.80078125 244.484375 C-528.93165309 240.20249625 -533.59733148 233.68528351 -535 226.25 C-537.0430057 207.51212954 -531.40262439 187.59321349 -519.9765625 172.59375 C-501.8047862 151.33867591 -476.60583412 138.68227617 -449 135.25 C-446.20630125 135.14477463 -443.42011625 135.15464601 -440.625 135.1875 C-439.88894531 135.19201172 -439.15289063 135.19652344 -438.39453125 135.20117188 C-436.59631842 135.21284858 -434.79814803 135.23077989 -433 135.25 C-433.309375 134.115625 -433.61875 132.98125 -433.9375 131.8125 C-442.17125813 98.5270948 -427.69808719 67.21387531 -411.14599609 39.11474609 C-407.49503367 33.17395977 -403.10856023 27.98476314 -398 23.25 C-397.45085937 22.70730469 -396.90171875 22.16460937 -396.3359375 21.60546875 C-385.85579022 11.70755187 -373.80259509 7.68528551 -359.640625 7.94140625 C-348.29781653 8.90286748 -338.04582202 14.24179541 -328 19.25 C-326.84886719 19.80816406 -325.69773437 20.36632812 -324.51171875 20.94140625 C-313.99169962 26.26940654 -304.44988238 32.90797421 -300 44.25 C-297.89438939 52.78042245 -298.06495967 62.68936448 -302.22265625 70.56640625 C-306.28797724 76.97335213 -311.12722899 82.49438815 -317.5625 86.5625 C-322.09260884 89.70897831 -325.20600396 94.05858289 -327 99.25 C-327.20673108 102.927366 -327.14946761 106.57123363 -327 110.25 C-325.85563477 109.97849121 -324.71126953 109.70698242 -323.53222656 109.42724609 C-237.70994392 89.14563075 -237.70994392 89.14563075 -221.125 96.25 C-214.64046511 100.29424173 -210.99934079 105.96988914 -209 113.25 C-207.4354889 127.03416618 -210.65042981 142.91535031 -219 154.25 C-221.844338 157.7490724 -224.84260395 161.03199076 -228 164.25 C-228.81404297 165.10078125 -228.81404297 165.10078125 -229.64453125 165.96875 C-238.89905418 174.77811866 -252.78771227 178.89144679 -264.625 183.0625 C-266.63056497 183.777046 -268.63519793 184.49409325 -270.63900757 185.21354675 C-272.42906398 185.8551075 -274.22153821 186.48991064 -276.01416016 187.12426758 C-276.9994873 187.49575928 -277.98481445 187.86725098 -279 188.25 C-280.15894775 188.63224731 -280.15894775 188.63224731 -281.34130859 189.0222168 C-283.29583997 190.20497957 -283.29583997 190.20497957 -283.76733398 193.03637695 C-285.33963412 214.75325703 -278.81837487 238.26059044 -274.69685364 259.44917297 C-273.31621984 266.55852124 -271.99125371 273.67696499 -270.6875 280.80078125 C-270.10511246 283.96762539 -269.52222766 287.1343777 -268.93927002 290.30111694 C-268.57180238 292.30291134 -268.20611077 294.30503284 -267.84246826 296.30752563 C-265.86804775 307.158738 -263.63883478 317.86875122 -260.94921875 328.56640625 C-258.0537758 340.21376148 -256.2950562 351.8584434 -254.8420105 363.76251221 C-254.14689622 369.43323931 -253.39915115 375.09708788 -252.65625 380.76171875 C-252.44167397 382.40744873 -252.44167397 382.40744873 -252.22276306 384.08642578 C-249.49141085 404.90139384 -245.93821557 424.724247 -238 444.25 C-219.57029997 442.47791346 -204.53162036 429.58549034 -191.58227539 417.42211914 C-187.93684591 414.02411969 -184.13425409 410.91558068 -180.1875 407.875 C-173.70673851 402.88056057 -167.51037272 397.61197162 -161.3828125 392.19140625 C-159.3761867 390.42121575 -157.37613017 388.77547011 -155.2421875 387.15234375 C-154.50226563 386.58644531 -153.76234375 386.02054688 -153 385.4375 C-152.38125 384.99792969 -151.7625 384.55835938 -151.125 384.10546875 C-149.54406549 381.49802467 -150.31605214 379.54158555 -150.72671509 376.63468933 C-151.23049878 372.23866331 -151.16247952 367.83020143 -151.16796875 363.41015625 C-151.1721582 362.37876022 -151.17634766 361.3473642 -151.18066406 360.28471375 C-151.19040692 356.9606033 -151.1904606 353.6366223 -151.1875 350.3125 C-151.18722809 349.18162964 -151.18695618 348.05075928 -151.18667603 346.88562012 C-151.16892341 330.90713104 -150.90961266 315.13009643 -149 299.25 C-148.81477068 297.48050363 -148.62987836 295.71097195 -148.4453125 293.94140625 C-144.97739335 263.15837575 -135.64455895 234.9393217 -122.94921875 206.86328125 C-120.28426704 200.94126184 -117.77445754 194.97158845 -115.375 188.9375 C-114.89752319 187.73867188 -114.89752319 187.73867188 -114.41040039 186.515625 C-112.81504886 182.46159656 -111.3623562 178.38963658 -110 174.25 C-110.86689453 174.66362793 -111.73378906 175.07725586 -112.62695312 175.50341797 C-115.87379561 177.05021336 -119.12516942 178.58727539 -122.37792969 180.12158203 C-123.77955621 180.78433917 -125.17997512 181.44965698 -126.57910156 182.11767578 C-128.6016181 183.08277105 -130.62843837 184.0382774 -132.65625 184.9921875 C-133.2711731 185.28809784 -133.88609619 185.58400818 -134.51965332 185.8888855 C-142.6645545 189.69161655 -150.28747395 190.61378853 -159.1875 190.5625 C-160.20545654 190.55686035 -161.22341309 190.5512207 -162.2722168 190.54541016 C-174.53774445 190.34797318 -186.57193879 188.71309923 -195.65625 179.5859375 C-201.85673302 171.69113645 -201.77867048 161.84711372 -201 152.25 C-198.8800237 138.30028414 -193.41939957 125.83359503 -184 115.25 C-183.14664062 114.2909375 -182.29328125 113.331875 -181.4140625 112.34375 C-169.14234493 99.08852598 -150.37325141 87.70434708 -132 86.25 C-125.6656568 86.0594525 -119.33501018 86.13292589 -113 86.25 C-113.01047363 85.62246826 -113.02094727 84.99493652 -113.03173828 84.34838867 C-113.45631539 54.84565369 -111.45464491 29.39403026 -93 5.25 C-92.38125 4.3425 -91.7625 3.435 -91.125 2.5 C-70.90783071 -18.90641454 -22.53897787 -17.03363254 0 0 Z M191.13671875 227.1484375 C184.07256103 235.57530414 178.19201579 246.11308411 178 257.25 C204.32490473 257.99115999 230.2159913 249.77267246 252 235.25 C249.61625783 228.32751643 244.44499667 223.2758184 238 219.875 C222.46540076 213.07108638 203.33369985 214.72132468 191.13671875 227.1484375 Z M-457 230.0625 C-473.19858957 238.70084371 -490.48653558 246.70178119 -509.0625 247.875 C-510.18785156 247.94976563 -511.31320312 248.02453125 -512.47265625 248.1015625 C-513.30667969 248.15054687 -514.14070313 248.19953125 -515 248.25 C-512.36869424 250.00420384 -509.86722781 251.19774718 -506.96240234 252.40576172 C-483.23594116 262.29798535 -455.79997909 275.86819484 -445.1875 300.5 C-439.04591351 315.52601743 -440.54502815 334.24435614 -446 349.25 C-446.36222656 350.27996094 -446.72445313 351.30992187 -447.09765625 352.37109375 C-455.29973957 373.75211773 -469.17317444 385.68908116 -487.80322266 397.81689453 C-490.18066148 399.36785763 -492.5494032 400.93161687 -494.91796875 402.49609375 C-499.91851029 405.78980926 -504.94869975 409.03474138 -510 412.25 C-511.11117187 412.95898438 -512.22234375 413.66796875 -513.3671875 414.3984375 C-544.36579134 433.09225203 -578.53785662 442.73210795 -614.23730469 446.90673828 C-615.46352539 447.05481934 -616.68974609 447.20290039 -617.953125 447.35546875 C-619.04786133 447.48074951 -620.14259766 447.60603027 -621.27050781 447.73510742 C-624.20532202 448.10460191 -624.20532202 448.10460191 -627 450.25 C-622.85366001 466.40042921 -615.06623995 480.92194209 -606.48046875 495.109375 C-604.38781982 498.56957042 -602.40517436 502.07958998 -600.45263672 505.62036133 C-596.67910893 512.46200154 -592.7629059 519.0345767 -588 525.25 C-587.50628906 525.9203125 -587.01257812 526.590625 -586.50390625 527.28125 C-574.14379013 542.81615904 -551.85827125 553.32620563 -532.5 556 C-531.00154694 556.1076237 -529.5010488 556.18838059 -528 556.25 C-526.46666016 556.34474609 -526.46666016 556.34474609 -524.90234375 556.44140625 C-507.27076954 557.05761685 -493.86994654 550.88304816 -479 542.25 C-478.27184082 541.83411621 -477.54368164 541.41823242 -476.79345703 540.98974609 C-462.07031683 532.51442048 -451.24060226 522.02502305 -440.46142578 509.00537109 C-439.04033942 507.29845313 -437.60085455 505.60945615 -436.15234375 503.92578125 C-431.63326675 498.6645893 -427.25075889 493.34136972 -423.0625 487.8125 C-415.55452238 477.92970333 -407.82752618 467.93859401 -398 460.25 C-398.30292969 459.60675781 -398.60585937 458.96351563 -398.91796875 458.30078125 C-404.04019638 447.25253026 -408.43315751 436.49153553 -410.4375 424.4375 C-410.63577393 423.2815332 -410.83404785 422.12556641 -411.03833008 420.93457031 C-413.03297759 408.82986549 -414.62237967 396.66644329 -416.1875 384.5 C-416.31405975 383.53701996 -416.44061951 382.57403992 -416.5710144 381.58187866 C-421.12160657 346.66405669 -421.21422492 312.01922844 -421 276.875 C-420.95243695 268.97365779 -420.9119485 261.07239255 -420.88812256 253.1709404 C-420.87530208 250.0500956 -420.85033311 246.92950819 -420.82470703 243.80874634 C-420.81744144 241.89154268 -420.81073804 239.97433678 -420.8046875 238.05712891 C-420.78918854 236.78385742 -420.78918854 236.78385742 -420.77337646 235.48486328 C-420.77234013 229.53903771 -421.64803506 224.03517474 -423 218.25 C-435.45288539 217.72686059 -446.36720359 224.23635349 -457 230.0625 Z M-990 284.25 C-991.33563611 287.41701423 -991.33563611 287.41701423 -992 290.25 C-992.66 290.58 -993.32 290.91 -994 291.25 C-994 291.91 -994 292.57 -994 293.25 C-994.99 293.58 -995.98 293.91 -997 294.25 C-997.94992546 300.70796098 -998.21527642 307.03880804 -998.25 313.5625 C-998.270625 314.55056641 -998.29125 315.53863281 -998.3125 316.55664062 C-998.31765625 317.50345703 -998.3228125 318.45027344 -998.328125 319.42578125 C-998.3374707 320.28083252 -998.34681641 321.13588379 -998.35644531 322.0168457 C-998.16386986 324.31564882 -998.16386986 324.31564882 -996.67211914 326.06103516 C-994.9223967 327.56491441 -994.9223967 327.56491441 -991.91796875 327.09765625 C-976.39186769 323.82985906 -963.78150237 317.49801444 -951 308.25 C-950.4126709 307.82638184 -949.8253418 307.40276367 -949.22021484 306.96630859 C-932.10935253 294.51790194 -932.10935253 294.51790194 -923.3125 275.875 C-923.78561444 273.00109339 -923.78561444 273.00109339 -926.57421875 271.1953125 C-930.28425006 269.08859005 -933.31529125 268.2654955 -937.5 267.5 C-938.7684375 267.25765625 -940.036875 267.0153125 -941.34375 266.765625 C-957.46067896 264.49272476 -978.88681013 272.0784111 -990 284.25 Z M-620 352.25 C-620.76828125 352.77980469 -621.5365625 353.30960938 -622.328125 353.85546875 C-622.87984375 354.31566406 -623.4315625 354.77585937 -624 355.25 C-624 355.91 -624 356.57 -624 357.25 C-624.66 357.25 -625.32 357.25 -626 357.25 C-628.2176869 359.74648182 -630.06780973 362.52916064 -632 365.25 C-632.78375 366.28125 -633.5675 367.3125 -634.375 368.375 C-636.23733586 371.66990191 -636.13370952 373.53698959 -636 377.25 C-623.76421207 378.50495261 -612.59362333 376.39021296 -600.75 373.5625 C-600.02846741 373.39250488 -599.30693481 373.22250977 -598.5635376 373.04736328 C-578.7771457 368.33987027 -558.67676384 362.10905272 -546.6640625 344.265625 C-545.75020932 341.49181182 -545.95179622 339.96822336 -547 337.25 C-549.11162019 335.81043441 -549.11162019 335.81043441 -551.75 335 C-552.61109375 334.68546875 -553.4721875 334.3709375 -554.359375 334.046875 C-578.17747097 326.85916557 -601.10002919 338.67693179 -620 352.25 Z M-959 474.25 C-965.47627047 479.18910122 -965.47627047 479.18910122 -968.6875 479.5625 C-971.41161273 480.09848177 -971.41161273 480.09848177 -973.125 483.5625 C-977.05344662 492.46909963 -981.35175492 505.75142396 -977.875 515.3125 C-976.24103767 518.2666607 -976.24103767 518.2666607 -973.9375 519.75 C-957.76975251 522.50195702 -941.73834765 510.80208891 -929 502.25 C-920.4734627 496.01654902 -912.50805497 487.7880461 -910 477.25 C-909.5575776 471.89223231 -909.5575776 471.89223231 -912 467.25 C-928.08835112 459.76059517 -945.65616046 464.00624439 -959 474.25 Z " fill="#282828" transform="translate(1626,354.75)"/>
<path d="M0 0 C8.89627208 6.77238731 13.8968396 13.83000405 15.7890625 24.91796875 C16.32273321 33.4859635 15.36517877 41.83047898 14.1015625 50.29296875 C13.92294678 51.50742676 13.74433105 52.72188477 13.56030273 53.97314453 C9.27720822 82.06450187 1.16239929 104.33595079 -14.75244141 127.75585938 C-16.35236766 130.12762819 -17.92966026 132.51345616 -19.50390625 134.90234375 C-26.68316243 145.78348256 -34.05550107 156.48209208 -41.78710938 166.97851562 C-43.07026179 168.72634876 -44.33844932 170.48376038 -45.6015625 172.24609375 C-52.69577932 181.99426219 -60.65907656 191.16757211 -69.90625 198.9375 C-73.1480161 201.72322104 -76.27152547 204.6294871 -79.3984375 207.54296875 C-80.04699707 208.14641113 -80.69555664 208.74985352 -81.36376953 209.37158203 C-85.09096537 212.86254065 -88.72301807 216.42340568 -92.28759766 220.07983398 C-98.48212172 226.42739039 -104.97200657 231.76218341 -112.2109375 236.91796875 C-115.03515934 238.96480596 -117.84333084 241.03254572 -120.6484375 243.10546875 C-121.32302002 243.59281494 -121.99760254 244.08016113 -122.69262695 244.58227539 C-127.89283902 248.42178156 -132.47238025 252.06221404 -134.1484375 258.54296875 C-134.20915263 261.82158575 -134.12022632 263.30525774 -132.2109375 265.91796875 C-129.37399835 267.33643832 -127.35804184 267.20020292 -124.2109375 266.91796875 C-121.63651312 265.46006268 -121.63651312 265.46006268 -119.3359375 263.35546875 C-118.46582031 262.61941406 -117.59570312 261.88335938 -116.69921875 261.125 C-115.22866249 259.82066046 -113.76478409 258.5086115 -112.31640625 257.1796875 C-98.5630537 244.62488419 -81.35028606 235.94106697 -65.2109375 226.91796875 C-64.02419434 226.24725342 -64.02419434 226.24725342 -62.81347656 225.56298828 C-51.81748371 219.40882072 -40.43229884 215.87324205 -28.2109375 212.91796875 C-27.4988916 212.73862793 -26.7868457 212.55928711 -26.05322266 212.37451172 C-5.73744872 207.40536322 16.4374376 208.86424308 36.7890625 212.91796875 C37.48950684 213.0571875 38.18995117 213.19640625 38.91162109 213.33984375 C53.24154168 216.34131075 67.52947776 222.00045372 75.92285156 234.62304688 C85.00177112 249.09713164 85.17847435 261.85707511 81.40527344 278.4453125 C76.63467632 297.58818398 68.46363948 315.29648008 59.7890625 332.91796875 C59.2007666 334.12332275 59.2007666 334.12332275 58.60058594 335.35302734 C54.00386227 344.68701421 48.39377419 353.14286422 42.40185547 361.61767578 C39.31648465 366.01827581 36.30955182 370.47271313 33.2890625 374.91796875 C28.44785745 382.02615004 23.59967238 389.12932797 18.7175293 396.20947266 C16.44875867 399.49971966 14.19057634 402.79647096 11.94921875 406.10546875 C1.66997231 421.25290727 -9.26389995 434.73956362 -23.79296875 446.01171875 C-29.89585755 450.82304304 -35.48753993 456.13954073 -40.87841797 461.72558594 C-52.80610319 473.99669219 -66.56505162 481.42512217 -81.5859375 489.3671875 C-86.52881255 491.99113911 -91.38231773 494.7279856 -96.20385742 497.56738281 C-104.89479623 502.68258723 -113.74912739 507.23534393 -122.8984375 511.48046875 C-124.51105469 512.23191162 -124.51105469 512.23191162 -126.15625 512.99853516 C-137.41646039 518.12080627 -146.79536244 520.42012802 -159.14282227 520.30908203 C-161.2735976 520.29296754 -163.40248438 520.30901981 -165.53320312 520.328125 C-178.09012256 520.35147181 -186.21581008 517.31336039 -196.81640625 510.97070312 C-201.91850791 508.09900265 -206.35434609 506.67994544 -212.2109375 507.91796875 C-218.67936017 511.52625754 -220.57426746 517.36691366 -223.3359375 523.98046875 C-228.04506685 534.73292656 -233.45377246 544.68992088 -239.73779297 554.59375 C-241.18590158 556.87846892 -242.60804408 559.1777731 -244.02734375 561.48046875 C-251.11950309 572.85980139 -258.77911336 583.17400374 -268.98706055 591.9453125 C-273.25775737 595.73356921 -277.24723106 599.81105791 -281.2734375 603.85546875 C-282.13259766 604.71076172 -282.99175781 605.56605469 -283.87695312 606.44726562 C-289.85324438 612.43268796 -295.61639847 618.51897666 -300.7734375 625.23046875 C-307.93667978 633.59075152 -318.00144832 639.83605208 -326.95239258 646.14550781 C-331.19058029 649.1474834 -335.3175152 652.26825487 -339.3984375 655.48046875 C-339.98874756 655.94396729 -340.57905762 656.40746582 -341.18725586 656.88500977 C-343.77874832 658.93499634 -346.31440721 661.00893456 -348.796875 663.19140625 C-360.74337681 673.63046303 -375.28051891 680.77101924 -389.5859375 687.41796875 C-390.42745361 687.81491943 -391.26896973 688.21187012 -392.13598633 688.62084961 C-405.62644243 694.69006125 -420.11354925 697.06374426 -434.6484375 699.16796875 C-435.99714935 699.36457596 -435.99714935 699.36457596 -437.37310791 699.56515503 C-463.39083824 703.26732444 -491.39695209 704.8134956 -517.2109375 698.91796875 C-518.2925415 698.70043945 -518.2925415 698.70043945 -519.39599609 698.47851562 C-535.16665456 695.29196666 -549.64394892 688.55820433 -564.2109375 681.91796875 C-565.08073242 681.52641602 -565.95052734 681.13486328 -566.84667969 680.73144531 C-591.67969143 669.45698681 -616.79503168 645.21921629 -627.48388672 619.86425781 C-632.12681914 607.43529299 -633.35558199 594.25359717 -633.4140625 581.09375 C-633.41976257 580.07105515 -633.42546265 579.04836029 -633.43133545 577.99467468 C-633.44073944 575.83394386 -633.44730101 573.67319899 -633.45117188 571.51245117 C-633.46077607 568.28472094 -633.49180184 565.05765665 -633.5234375 561.83007812 C-633.65777434 535.37002915 -632.05684877 504.22133188 -612.578125 484.15234375 C-604.801499 476.8120301 -593.51785513 466.5230965 -582.4375 465.60546875 C-579.00222695 465.93818285 -577.66585006 466.5612527 -575.2109375 468.91796875 C-575.65852786 474.48798214 -577.21859601 478.22229513 -580.2734375 482.91796875 C-581.09367221 484.2393205 -581.91131562 485.5622838 -582.7265625 486.88671875 C-583.14099609 487.55574219 -583.55542969 488.22476562 -583.98242188 488.9140625 C-595.83233721 508.24317719 -602.28723607 530.91080528 -596.9609375 553.60546875 C-594.32676826 562.41885744 -590.8582633 569.28303804 -582.7734375 574.23046875 C-572.16661664 579.09689405 -559.677133 575.36848885 -549.2109375 571.91796875 C-548.25058594 571.60214844 -547.29023437 571.28632812 -546.30078125 570.9609375 C-538.8060448 568.14645841 -532.20238584 563.97862007 -525.42382812 559.78637695 C-517.70124305 555.06757846 -509.70501961 551.04586754 -501.52050781 547.19116211 C-495.08602733 544.09757807 -489.66188362 540.52143939 -484.2109375 535.91796875 C-483.48793457 535.31799072 -482.76493164 534.7180127 -482.02001953 534.09985352 C-478.052794 530.77814095 -474.66528051 527.22477027 -471.3203125 523.2890625 C-465.39586902 516.62954919 -458.99910957 510.19728298 -452.2109375 504.41796875 C-441.93048599 495.56897252 -433.58974798 486.33945531 -426.40820312 474.82958984 C-418.74496683 462.59403924 -410.20801693 451.27327705 -401.09375 440.09375 C-400.57087402 439.44857422 -400.04799805 438.80339844 -399.50927734 438.13867188 C-398.52300801 436.92317501 -397.53166829 435.71176234 -396.53369141 434.50585938 C-389.36665757 425.68258872 -383.9386672 415.81328617 -378.6484375 405.79296875 C-373.85599128 396.80802005 -369.00163261 387.86396618 -364.0234375 378.98046875 C-363.44311768 377.94237061 -362.86279785 376.90427246 -362.26489258 375.8347168 C-359.62375575 371.13062284 -356.95264447 366.45278697 -354.16796875 361.83203125 C-335.0638426 330.0814661 -328.90620744 294.71554763 -323.60003662 258.56201172 C-323.19908202 255.83740726 -322.79023234 253.11404955 -322.38134766 250.390625 C-320.04302719 234.66139009 -319.02427573 219.29982347 -319.02563477 203.40185547 C-319.02346815 200.58284939 -319.00530505 197.76424876 -318.98632812 194.9453125 C-318.91983936 174.57133371 -320.98855385 154.58534173 -324.07788086 134.46337891 C-324.52627387 131.52437767 -324.95397113 128.58281766 -325.38085938 125.640625 C-330.74675884 89.69153763 -346.34452012 59.01817297 -375.7109375 36.79296875 C-379.48171869 34.07080367 -383.33327098 31.48407159 -387.2109375 28.91796875 C-375.53465358 12.09820786 -347.306523 9.51978542 -328.83129883 6.12182617 C-306.01536862 2.15374304 -284.78808056 3.92096941 -262.5234375 9.85546875 C-261.61505127 10.09604004 -260.70666504 10.33661133 -259.77075195 10.58447266 C-246.26658248 14.35697862 -238.38551147 20.06190237 -231.25390625 32.2421875 C-230.56895785 33.46523925 -229.88803282 34.69055202 -229.2109375 35.91796875 C-228.86885254 36.53494629 -228.52676758 37.15192383 -228.17431641 37.78759766 C-219.16291166 54.28800982 -214.5511713 71.2658116 -211.5234375 89.73046875 C-211.10241223 92.26992101 -210.67705293 94.8083108 -210.23905945 97.34489441 C-209.97059322 98.90137052 -209.71165837 100.45953348 -209.46418762 102.01948547 C-208.61141936 106.98752577 -207.53564461 111.21318354 -203.3359375 114.29296875 C-200.46314958 115.13790637 -199.03290491 114.95039585 -196.2109375 113.91796875 C-191.13487459 109.7889945 -189.24773798 105.02042041 -186.8359375 99.04296875 C-182.98221594 89.88440528 -178.94766118 80.83253998 -174.66766357 71.86639404 C-174.04170933 70.55071209 -173.42076959 69.23262973 -172.80548096 67.91192627 C-165.84674284 52.99543036 -156.62425051 40.73588961 -145.2109375 28.91796875 C-144.47230469 28.12777344 -143.73367188 27.33757813 -142.97265625 26.5234375 C-125.66099966 8.4522201 -101.34267875 -6.49343084 -77.2109375 -13.08203125 C-76.56898438 -13.26604492 -75.92703125 -13.45005859 -75.265625 -13.63964844 C-49.68003695 -20.26027339 -21.81797164 -14.14717626 0 0 Z M-164.2109375 150.91796875 C-165.54657361 154.08498298 -165.54657361 154.08498298 -166.2109375 156.91796875 C-166.8709375 157.24796875 -167.5309375 157.57796875 -168.2109375 157.91796875 C-168.2109375 158.57796875 -168.2109375 159.23796875 -168.2109375 159.91796875 C-169.2009375 160.24796875 -170.1909375 160.57796875 -171.2109375 160.91796875 C-172.16086296 167.37592973 -172.42621392 173.70677679 -172.4609375 180.23046875 C-172.4815625 181.21853516 -172.5021875 182.20660156 -172.5234375 183.22460938 C-172.52859375 184.17142578 -172.53375 185.11824219 -172.5390625 186.09375 C-172.5484082 186.94880127 -172.55775391 187.80385254 -172.56738281 188.68481445 C-172.37480736 190.98361757 -172.37480736 190.98361757 -170.88305664 192.72900391 C-169.1333342 194.23288316 -169.1333342 194.23288316 -166.12890625 193.765625 C-150.60280519 190.49782781 -137.99243987 184.16598319 -125.2109375 174.91796875 C-124.6236084 174.49435059 -124.0362793 174.07073242 -123.43115234 173.63427734 C-106.32029003 161.18587069 -106.32029003 161.18587069 -97.5234375 142.54296875 C-97.99655194 139.66906214 -97.99655194 139.66906214 -100.78515625 137.86328125 C-104.49518756 135.7565588 -107.52622875 134.93346425 -111.7109375 134.16796875 C-112.979375 133.925625 -114.2478125 133.68328125 -115.5546875 133.43359375 C-131.67161646 131.16069351 -153.09774763 138.74637985 -164.2109375 150.91796875 Z M-133.2109375 340.91796875 C-139.68720797 345.85706997 -139.68720797 345.85706997 -142.8984375 346.23046875 C-145.62255023 346.76645052 -145.62255023 346.76645052 -147.3359375 350.23046875 C-151.26438412 359.13706838 -155.56269242 372.41939271 -152.0859375 381.98046875 C-150.45197517 384.93462945 -150.45197517 384.93462945 -148.1484375 386.41796875 C-131.98069001 389.16992577 -115.94928515 377.47005766 -103.2109375 368.91796875 C-94.6844002 362.68451777 -86.71899247 354.45601485 -84.2109375 343.91796875 C-83.7685151 338.56020106 -83.7685151 338.56020106 -86.2109375 333.91796875 C-102.29928862 326.42856392 -119.86709796 330.67421314 -133.2109375 340.91796875 Z " fill="#FEF576" transform="translate(800.2109375,488.08203125)"/>
<path d="M0 0 C6.56211745 3.64148477 13.95220344 7.86334587 17.71142578 14.50463867 C18.61297523 19.44568877 18.76585477 24.11678781 16.70751953 28.77807617 C13.35602586 33.60957417 8.78889067 36.88773719 4.17626953 40.44604492 C-3.47817052 46.83889739 -8.69151075 55.16083937 -9.63232422 65.15698242 C-9.84373301 73.97449063 -9.6030577 81.62426776 -3.72607422 88.50463867 C1.21053593 92.55519059 6.16698486 92.07255386 12.39013672 91.7355957 C19.90169953 90.98823154 27.28236713 88.92185024 34.61865234 87.21020508 C43.93452254 85.08493946 53.3303887 83.31525399 62.71142578 81.50463867 C63.90654785 81.27180176 65.10166992 81.03896484 66.33300781 80.79907227 C70.03994246 80.08255692 73.74996761 79.38480566 77.46142578 78.69213867 C78.59088623 78.47299805 79.72034668 78.25385742 80.8840332 78.02807617 C100.22636724 74.49184407 100.22636724 74.49184407 106.01904297 77.83740234 C108.48314811 80.26489426 108.69565229 82.36793508 109.08642578 85.75463867 C108.90960063 97.71243965 102.63884641 109.84546513 94.33642578 118.12963867 C84.15018142 126.43095183 69.71566459 130.07654397 57.49291992 134.22094727 C48.60417009 137.30286684 41.17827222 140.62594822 35.71142578 148.50463867 C31.51377373 159.08155617 33.88870363 171.16030979 35.31298828 182.14916992 C35.3996236 182.82985849 35.48625893 183.51054707 35.57551956 184.21186256 C37.63221307 200.25796937 40.58491278 216.12090299 43.66265869 231.99731445 C44.22861345 234.92857374 44.78524753 237.86156795 45.34160995 240.79466057 C51.43842164 272.96116913 51.43842164 272.96116913 58.42913818 304.9407196 C60.51555255 313.91584256 61.78658417 322.8625838 62.80664062 332.0163269 C65.83559114 381.06029854 65.83559114 381.06029854 86.83642578 422.69213867 C93.42585871 426.84634639 98.98752522 427.33005892 106.53564453 425.65698242 C107.82847383 425.26852123 109.11626758 424.86296838 110.39892578 424.44213867 C111.43593628 424.10605591 111.43593628 424.10605591 112.49389648 423.76318359 C128.02137041 418.50287026 140.35010779 408.74394885 152.12841797 397.67700195 C155.77457344 394.27939394 159.57720246 391.17070096 163.52392578 388.12963867 C176.43232153 378.16692702 188.5378367 367.19328031 200.37158203 355.98510742 C225.47904389 332.50463867 225.47904389 332.50463867 233.71142578 332.50463867 C232.46630841 345.18268076 230.95795603 357.78781007 229.02392578 370.37963867 C228.89581512 371.21548492 228.76770447 372.05133118 228.63571167 372.9125061 C222.16741679 414.65449655 208.55906956 448.32225151 186.85986328 484.27026367 C184.76179324 487.74840335 182.68502776 491.2379275 180.62548828 494.73901367 C169.28101216 513.97593122 156.92932965 532.01483318 139.71142578 546.50463867 C138.71498047 547.36444336 137.71853516 548.22424805 136.69189453 549.11010742 C101.33621192 579.52388853 61.12266649 596.96882201 13.71142578 594.50463867 C4.16570569 593.61122643 -6.03214841 591.5470579 -14.28857422 586.50463867 C-15.56396484 584.69262695 -15.56396484 584.69262695 -16.28857422 582.50463867 C-15.54101562 580.39257812 -15.54101562 580.39257812 -14.14013672 578.11791992 C-13.63313232 577.27100586 -13.12612793 576.4240918 -12.60375977 575.55151367 C-12.04599854 574.64916992 -11.4882373 573.74682617 -10.91357422 572.81713867 C-9.78273043 570.90966767 -8.6564649 568.99947543 -7.53466797 567.08666992 C-6.97763184 566.13872559 -6.4205957 565.19078125 -5.84667969 564.21411133 C13.26183547 530.98529572 23.37208325 485.85900095 14.68408203 448.03588867 C14.36310547 446.87057617 14.04212891 445.70526367 13.71142578 444.50463867 C13.45401611 443.54944336 13.45401611 443.54944336 13.19140625 442.57495117 C9.98462647 430.97437518 5.1666498 419.3121512 -5.28857422 412.50463867 C-14.92204189 407.27445129 -24.03987746 407.86496873 -34.31591797 410.56713867 C-37.84314436 411.67953596 -41.07703259 413.12133282 -44.35107422 414.83276367 C-46.28857422 415.50463867 -46.28857422 415.50463867 -48.31982422 415.56713867 C-53.54862815 412.74524449 -55.55162827 402.89935526 -57.28857422 397.50463867 C-58.10384649 394.28043436 -58.73004666 391.03928571 -59.31591797 387.76635742 C-59.48224228 386.86308212 -59.64856659 385.95980682 -59.81993103 385.02915955 C-61.47386804 375.84063715 -62.79381507 366.61265344 -63.98901367 357.35449219 C-64.34357639 354.62486131 -64.71484677 351.89787945 -65.08740234 349.1706543 C-65.91574408 342.95848491 -66.62303511 336.73620463 -67.28857422 330.50463867 C-67.49702469 328.57332596 -67.49702469 328.57332596 -67.70968628 326.60299683 C-70.92330028 296.04340453 -70.50794532 265.54512961 -70.18878174 234.85632324 C-70.11604726 227.81672494 -70.05949476 220.77738793 -70.02588081 213.7374897 C-70.00401276 210.49516994 -69.95864277 207.2537512 -69.91233826 204.01170349 C-69.66738713 186.82062849 -69.66738713 186.82062849 -76.53857422 171.37963867 C-82.34532106 167.4204931 -87.22791607 166.12836535 -94.28857422 166.50463867 C-97.01092181 167.08067967 -99.57367993 167.70601179 -102.22607422 168.50463867 C-102.96696289 168.72611572 -103.70785156 168.94759277 -104.47119141 169.17578125 C-111.75881207 171.47000352 -118.33293123 174.80167848 -125.07226562 178.3527832 C-162.756596 197.938008 -162.756596 197.938008 -176.28857422 196.50463867 C-179.82561223 194.70002744 -180.87739093 193.3465854 -182.60107422 189.81713867 C-185.30822018 176.77361725 -180.34875956 163.21558959 -173.91357422 151.89916992 C-162.31522039 134.80832642 -143.13638812 124.91522484 -123.60107422 120.06713867 C-122.55564453 119.80747314 -121.51021484 119.54780762 -120.43310547 119.28027344 C-111.10122803 117.14098177 -102.72269922 116.74337658 -93.42138672 119.04370117 C-88.9236716 120.01573484 -84.91473897 120.43968341 -80.78857422 118.06713867 C-77.87666778 113.09263184 -78.80649315 108.3602352 -80.19482422 103.01635742 C-80.45972656 102.05270264 -80.45972656 102.05270264 -80.72998047 101.06958008 C-89.01655392 70.43678365 -79.23115084 44.94261429 -64.40429688 18.34741211 C-48.27101467 -9.67789589 -28.13578073 -14.06286522 0 0 Z " fill="#FEF576" transform="translate(1291.28857421875,389.495361328125)"/>
<path d="M0 0 C7.75643963 6.76478584 11.21214887 15.46249663 12.28173828 25.57861328 C13.17039862 43.15684838 7.0469648 60.59730488 -4.44873047 73.93798828 C-11.69938569 81.87239881 -20.69002735 87.86121693 -29.76123047 93.50048828 C-30.72343506 94.10344727 -31.68563965 94.70640625 -32.67700195 95.32763672 C-34.60767216 96.53725972 -36.53952848 97.74499197 -38.47265625 98.95068359 C-40.7928609 100.40958404 -43.09212755 101.89357491 -45.38232422 103.39892578 C-77.89196788 124.62728383 -114.34730061 134.89787225 -152.61669922 139.14111328 C-159.40531991 139.92693433 -165.02058008 140.79180287 -170.13623047 145.62548828 C-173.57093001 150.34820015 -173.91646416 154.97659634 -173.13623047 160.62548828 C-168.84514245 182.08092838 -156.59293832 201.52955321 -145.59326172 220.15136719 C-144.1536947 222.59583303 -142.73823135 225.05317452 -141.32373047 227.51220703 C-127.77242886 250.75841756 -106.13891188 268.71306634 -80.04248047 276.55517578 C-54.450939 283.20644275 -31.04237416 280.3165297 -8.13623047 267.62548828 C-7.2823877 267.16013672 -6.42854492 266.69478516 -5.54882812 266.21533203 C9.47663386 258.11161638 9.47663386 258.11161638 22.86376953 247.62548828 C23.33041016 247.18769043 23.79705078 246.74989258 24.27783203 246.29882812 C30.52041036 240.38638615 36.23594387 234.20180956 41.59033203 227.46533203 C44.09621648 224.33512929 46.6917615 221.29408273 49.30126953 218.25048828 C52.97012037 213.95689474 56.46703214 209.57419575 59.86376953 205.06298828 C64.81321519 198.53399489 70.15284782 192.49750792 75.86376953 186.62548828 C76.72615234 185.73732422 77.58853516 184.84916016 78.47705078 183.93408203 C87.46194505 175.21540685 100.4163233 166.43651481 113.36376953 166.25048828 C118.39216293 166.38657471 121.15329854 167.00130731 124.86376953 170.62548828 C139.39391908 189.69402207 137.88480278 219.23022913 135.11376953 241.93798828 C134.73545079 244.17398248 134.31850616 246.40377504 133.86376953 248.62548828 C133.74018066 249.26599121 133.6165918 249.90649414 133.48925781 250.56640625 C130.02278464 268.25172209 123.50175681 284.8476289 114.86376953 300.62548828 C114.47286133 301.3401123 114.08195312 302.05473633 113.67919922 302.79101562 C98.0598231 331.0088639 69.19238447 355.10398272 37.86376953 364.62548828 C29.2839542 367.03701477 20.61174951 368.93547847 11.86376953 370.62548828 C10.45514648 370.8988501 10.45514648 370.8988501 9.01806641 371.17773438 C-52.62770549 382.37693914 -130.28529183 372.66278309 -183.13623047 337.62548828 C-193.98666207 329.99658381 -204.60386869 321.86733998 -214.13623047 312.62548828 C-214.88517578 311.93841797 -215.63412109 311.25134766 -216.40576172 310.54345703 C-251.9525457 276.93448751 -268.17417217 218.45383853 -269.74169922 171.19580078 C-269.77908203 170.17744141 -269.81646484 169.15908203 -269.85498047 168.10986328 C-269.89026855 167.14032715 -269.92555664 166.17079102 -269.96191406 165.171875 C-270.07290342 162.50301475 -270.07290342 162.50301475 -270.89404297 159.49267578 C-271.28360257 154.88079273 -269.28857268 151.19469091 -267.51123047 147.00048828 C-261.6435102 132.39783712 -257.63881157 117.32136929 -256.13623047 101.62548828 C-256.04083984 100.78373047 -255.94544922 99.94197266 -255.84716797 99.07470703 C-255.45632847 92.79041933 -257.24997826 87.52052316 -259.44506836 81.71362305 C-261.23286562 76.91539373 -261.23286562 76.91539373 -260.13623047 73.62548828 C-259.47623047 73.62548828 -258.81623047 73.62548828 -258.13623047 73.62548828 C-258.04728516 73.06603516 -257.95833984 72.50658203 -257.86669922 71.93017578 C-255.02655675 59.22104905 -244.26914864 49.52532807 -235.62841797 40.29736328 C-233.54556476 38.0643357 -231.51256551 35.80617381 -229.51123047 33.50048828 C-223.61952276 26.73129219 -217.65725923 20.04698853 -211.38623047 13.62548828 C-210.50451172 12.71798828 -209.62279297 11.81048828 -208.71435547 10.87548828 C-199.86693912 2.51663819 -189.8344631 -4.08856807 -179.31469727 -10.11743164 C-177.43378211 -11.19558018 -175.56093862 -12.28678402 -173.68896484 -13.38037109 C-115.88982567 -46.9999345 -52.80321446 -41.40772834 0 0 Z M-150.13623047 59.62548828 C-150.90451172 60.15529297 -151.67279297 60.68509766 -152.46435547 61.23095703 C-153.01607422 61.69115234 -153.56779297 62.15134766 -154.13623047 62.62548828 C-154.13623047 63.28548828 -154.13623047 63.94548828 -154.13623047 64.62548828 C-154.79623047 64.62548828 -155.45623047 64.62548828 -156.13623047 64.62548828 C-158.35391737 67.12197011 -160.2040402 69.90464892 -162.13623047 72.62548828 C-162.91998047 73.65673828 -163.70373047 74.68798828 -164.51123047 75.75048828 C-166.37356633 79.04539019 -166.26993999 80.91247787 -166.13623047 84.62548828 C-153.90044253 85.88044089 -142.7298538 83.76570124 -130.88623047 80.93798828 C-130.16469788 80.76799316 -129.44316528 80.59799805 -128.69976807 80.42285156 C-108.91337617 75.71535856 -88.81299431 69.48454101 -76.80029297 51.64111328 C-75.88643979 48.8673001 -76.08802669 47.34371164 -77.13623047 44.62548828 C-79.24785066 43.1859227 -79.24785066 43.1859227 -81.88623047 42.37548828 C-82.74732422 42.06095703 -83.60841797 41.74642578 -84.49560547 41.42236328 C-108.31370144 34.23465385 -131.23625966 46.05242008 -150.13623047 59.62548828 Z " fill="#FEF576" transform="translate(1156.13623046875,647.37451171875)"/>
<path d="M0 0 C1.50808976 1.32417637 3.0080022 2.65771824 4.5 4 C6.37085638 5.50516491 8.24601066 7.00500031 10.125 8.5 C28.20004341 23.41382284 35.62574828 41.7538639 38.2890625 64.77539062 C39.54094541 77.97811877 39.74739575 92.79330924 31.35644531 103.80541992 C25.58421304 110.62901223 18.66895804 115.45527279 10.875 119.6875 C9.01785392 120.71546819 7.16109694 121.7441396 5.3046875 122.7734375 C4.35045898 123.29905273 3.39623047 123.82466797 2.41308594 124.36621094 C-0.50262786 126.00147382 -3.37431588 127.69646421 -6.2421875 129.4140625 C-18.64184999 136.78327568 -30.60381615 142.16738077 -44.5 146 C-45.56831055 146.30131836 -46.63662109 146.60263672 -47.73730469 146.91308594 C-51.19445044 147.88005742 -54.65736885 148.82136194 -58.125 149.75 C-59.17204102 150.03214355 -60.21908203 150.31428711 -61.29785156 150.60498047 C-78.5103335 155.02840325 -95.19027538 156.44777582 -112.90039062 156.43579102 C-129.6309291 156.11261488 -129.6309291 156.11261488 -144.57714844 162.64501953 C-149.74919871 168.00796251 -151.63962176 174.38467851 -151.9375 181.6875 C-151.36542705 199.22373609 -141.44529134 211.93586675 -130.30566406 224.46875 C-122.89755778 232.84350795 -117.05842876 241.95488594 -111.5 251.625 C-107.42948901 258.67374351 -103.02225004 264.98227891 -97.5 271 C-97.05962402 271.48275391 -96.61924805 271.96550781 -96.16552734 272.46289062 C-83.03738089 286.69151823 -63.64107108 302.41539413 -43.48828125 303.3359375 C-8.21690175 303.89935818 23.94544372 289.44747965 49.41796875 265.05078125 C51.66356774 262.85191993 53.86164778 260.6104585 56.05078125 258.35546875 C64.28549146 249.89543065 72.65272606 242.5352779 82.5 236 C83.38945313 235.39929688 84.27890625 234.79859375 85.1953125 234.1796875 C88.71175265 231.99830259 91.09783461 231.0469193 95.25 230.5625 C99.6253129 232.49773455 100.58615187 234.76571195 102.43359375 239.0703125 C112.81440126 267.58901445 101.49490174 296.99123951 89.32437134 323.10174561 C78.88928014 345.23960162 65.02850672 360.58641043 45.98828125 375.91015625 C43.82683863 377.72549659 41.87979889 379.58262951 39.9375 381.625 C27.82521912 393.99377624 10.97352768 399.98252645 -5.5 404 C-6.26940918 404.18836426 -7.03881836 404.37672852 -7.83154297 404.57080078 C-14.26040045 406.00807957 -20.42605212 406.31199821 -27 406.25 C-28.05026367 406.24323242 -29.10052734 406.23646484 -30.18261719 406.22949219 C-72.40365588 405.67682715 -116.69219097 392.68004114 -148.5 364 C-149.62921875 363.03126953 -149.62921875 363.03126953 -150.78125 362.04296875 C-176.74356669 339.4124827 -198.38749921 311.77521976 -202.95703125 276.46875 C-202.85265531 270.20108411 -199.21662939 265.02058032 -196.25 259.6875 C-194.94883397 257.27461086 -193.66443302 254.85300535 -192.3828125 252.4296875 C-192.05594452 251.81360123 -191.72907654 251.19751495 -191.39230347 250.5627594 C-168.67253403 207.7447684 -168.67253403 207.7447684 -165.3125 160.64453125 C-168.78780933 152.35637577 -173.00969666 146.74661339 -181.375 143.0625 C-190.45287155 140.35136659 -199.00179821 142.58919097 -207.875 145.0625 C-209.98460426 145.6453834 -212.09652009 146.21998178 -214.2109375 146.78515625 C-215.13181152 147.04176025 -216.05268555 147.29836426 -217.00146484 147.56274414 C-219.60071057 148.01762484 -221.05407929 147.93967001 -223.5 147 C-229.5690688 140.38790926 -229.18666916 131.46066905 -228.85546875 123.078125 C-228.01212312 109.21213939 -225.26001363 96.03511425 -220.5 83 C-220.25266113 82.31196289 -220.00532227 81.62392578 -219.75048828 80.91503906 C-206.28859222 44.12087997 -180.18729689 19.83443408 -148.29931641 -1.14355469 C-145.87366867 -2.75219113 -143.4682549 -4.38394025 -141.07421875 -6.0390625 C-101.79737784 -33.13711471 -38.01590871 -30.01884157 0 0 Z M-102.36328125 67.8984375 C-109.42743897 76.32530414 -115.30798421 86.86308411 -115.5 98 C-89.17509527 98.74115999 -63.2840087 90.52267246 -41.5 76 C-43.88374217 69.07751643 -49.05500333 64.0258184 -55.5 60.625 C-71.03459924 53.82108638 -90.16630015 55.47132468 -102.36328125 67.8984375 Z " fill="#FEF576" transform="translate(1919.5,514)"/>
<path d="M0 0 C2.15849281 2.22609661 2.94907979 3.40377062 3.21484375 6.515625 C2.145208 17.06132956 -1.06338398 22.65463232 -8.921875 29.73046875 C-15.67959187 36.09440889 -21.0210175 44.00494211 -21.3125 53.5625 C-21.26169159 59.35465917 -19.48010103 63.8369644 -17 69 C-16.62875 69.928125 -16.2575 70.85625 -15.875 71.8125 C-12.19144635 76.10997926 -7.08063228 78.47843726 -1.53125 79.41796875 C13.82170172 79.91551811 28.96451493 75.09912766 43.25 70.0625 C74.35303058 59.27145068 74.35303058 59.27145068 85.1875 59.625 C86.03610596 59.63861572 86.88471191 59.65223145 87.7590332 59.66625977 C104.07657759 60.07657759 104.07657759 60.07657759 107 63 C108.41465397 75.24219785 105.23354655 91.11800012 98.38671875 101.4296875 C89.48914755 112.37204215 77.09356201 116.32646474 64 120 C59.45526879 121.29580661 54.91320707 122.60061885 50.3722229 123.90948486 C48.36793205 124.48410783 46.36135822 125.05006199 44.35424805 125.61474609 C28.71381304 129.82713447 28.71381304 129.82713447 15 138 C14.34 138 13.68 138 13 138 C12.61328125 138.78890625 12.61328125 138.78890625 12.21875 139.59375 C11.31340085 141.38123423 10.36968749 143.14939339 9.40625 144.90625 C2.37851192 157.99032163 -2.28779764 171.95214663 -7 186 C-7.31243652 186.92393555 -7.62487305 187.84787109 -7.94677734 188.79980469 C-11.2662523 198.7486523 -13.72232785 208.77324622 -15.75 219.0625 C-16.04837769 220.56804443 -16.04837769 220.56804443 -16.3527832 222.10400391 C-19.68664561 240.00760304 -20.34757696 257.72386508 -20.31567383 275.9074707 C-20.31249634 279.69185774 -20.33612724 283.47547352 -20.36132812 287.25976562 C-20.40849172 305.04153503 -19.27628055 320.57433697 -12 337 C-11.70222656 337.73734375 -11.40445312 338.4746875 -11.09765625 339.234375 C-9.69068429 341.49754698 -8.44617935 341.99848454 -6 343 C-5.2884375 343.35320312 -4.576875 343.70640625 -3.84375 344.0703125 C6.21436346 348.59646356 14.65827916 347.75598926 24.87744141 344.20410156 C29.69213256 342.3474904 34.20653203 340.06150513 38.75 337.625 C39.72590088 337.11042236 40.70180176 336.59584473 41.70727539 336.06567383 C49.07240664 332.14030491 56.26069918 327.94478896 63.4375 323.6875 C102.08307851 300.88244661 102.08307851 300.88244661 120 305 C122.93423195 306.79646854 124.47205355 307.9441071 126 311 C129.76513021 345.56512983 104.04725153 394.70939575 83.34765625 421.140625 C79.83789536 425.41540864 76.28591038 429.65060569 72.68359375 433.84765625 C70.25207806 436.68658245 67.9022715 439.58480549 65.5625 442.5 C51.49038372 459.70203538 36.36812305 472.10301723 17 483 C15.66461182 483.75410156 15.66461182 483.75410156 14.30224609 484.5234375 C3.13682651 490.76620695 -7.56097639 495.85219504 -20 499 C-21.07330566 499.27827637 -22.14661133 499.55655273 -23.25244141 499.84326172 C-31.48302543 501.97241753 -39.72310072 504.05788768 -48 506 C-48.89372314 506.21116455 -49.78744629 506.4223291 -50.70825195 506.63989258 C-56.65051156 507.9462229 -62.35980886 508.3505906 -68.4375 508.3125 C-69.35547363 508.30831055 -70.27344727 508.30412109 -71.21923828 508.29980469 C-84.37937463 508.08043019 -94.55307832 504.3401768 -104 495 C-105.48807005 492.02385991 -105.3602914 490.35776731 -105 487 C-103.54285687 483.38375491 -101.72659505 479.96135242 -99.9375 476.5 C-85.05114347 446.44830188 -79.9625762 412.88102538 -75 380 C-74.89861725 379.3295163 -74.7972345 378.65903259 -74.69277954 377.9682312 C-73.49730621 369.93548071 -72.65665954 362.06087743 -72.6875 353.9375 C-72.67138672 353.05384766 -72.65527344 352.17019531 -72.63867188 351.25976562 C-72.63480739 346.10067984 -73.05141579 342.42632899 -76 338 C-79.23693464 335.84204358 -81.36791158 335.33312787 -85.23828125 335.4453125 C-95.4911616 337.50458974 -105.21601057 346.08892751 -113.49023438 352.13769531 C-114.17923828 352.63881836 -114.86824219 353.13994141 -115.578125 353.65625 C-116.19075195 354.10806641 -116.80337891 354.55988281 -117.43457031 355.02539062 C-119 356 -119 356 -121 356 C-121.85434563 302.005356 -117.18501809 251.8969821 -94.41113281 202.12744141 C-92.01284009 196.81219404 -89.75020906 191.44176231 -87.5 186.0625 C-86.88632568 184.61593018 -86.88632568 184.61593018 -86.26025391 183.14013672 C-79.7723057 167.95695827 -79.7723057 167.95695827 -80.65625 151.85546875 C-82.29022285 148.51005019 -84.10087465 146.93792329 -87.25 145 C-94.03101982 143.19172805 -100.05539038 145.06323516 -106.4375 147.5625 C-107.11345215 147.82063477 -107.7894043 148.07876953 -108.48583984 148.34472656 C-114.53605708 150.70815776 -120.4056544 153.43261688 -126.23999023 156.28344727 C-133.17698824 159.66004049 -138.95288989 161.36711259 -146.6875 161.3125 C-147.47970947 161.30903564 -148.27191895 161.30557129 -149.08813477 161.30200195 C-155.71605108 161.17977548 -163.4520595 160.98313383 -168.7421875 156.53515625 C-171.80293157 152.79952762 -171.14622224 147.57062427 -171 143 C-168.05907439 126.99790479 -160.56848395 114.06402842 -147.3125 104.3125 C-132.15794127 94.37392893 -118.43879422 90.66122987 -100.36376953 90.46533203 C-93.11489397 90.49063308 -93.11489397 90.49063308 -87 87 C-84.37953889 83.30420066 -83.62611238 80.77429282 -83.59375 76.265625 C-83.5740918 75.14607422 -83.55443359 74.02652344 -83.53417969 72.87304688 C-83.51726074 71.07963867 -83.51726074 71.07963867 -83.5 69.25 C-82.58067612 30.47675754 -82.58067612 30.47675754 -75 17 C-74.47277344 15.96875 -73.94554687 14.9375 -73.40234375 13.875 C-67.7870116 3.43738944 -61.41106992 -2.53758727 -50 -6 C-36.27282108 -9.3157437 -12.04898451 -8.02365112 0 0 Z " fill="#FEF576" transform="translate(1613,367)"/>
<path d="M0 0 C2.87634989 2.17296302 4.4809186 3.69053813 5.03271484 7.33007812 C5.20168184 16.89260644 2.85515221 25.4033009 0.30859375 34.52734375 C-0.14756711 36.20199454 -0.60254203 37.87696877 -1.05639648 39.55224609 C-1.99551209 43.00711183 -2.94416588 46.45914639 -3.90087891 49.90917969 C-5.03648133 54.00563622 -6.15382255 58.10670252 -7.26235962 62.21055603 C-11.17723197 76.69569781 -15.23768993 91.08729846 -19.94140625 105.33984375 C-22.9979427 114.64155075 -25.82347848 123.97825752 -28.33880615 133.43954468 C-28.85942452 135.39179001 -29.39452428 137.34015586 -29.93017578 139.28833008 C-31.92489911 146.97839238 -33.80816076 155.08722225 -32.31640625 163.02734375 C-30.47862539 165.24436786 -29.01193043 166.67958166 -26.44140625 167.96484375 C-22.94381364 168.06771412 -21.22790765 166.96834469 -18.31640625 165.02734375 C-16.45852456 162.04423952 -15.2292648 158.85182252 -13.94140625 155.58984375 C-9.04513595 144.01289383 -3.21074902 134.76210402 5.40625 125.51171875 C7.72419346 122.98305316 9.89856268 120.3792671 12.05859375 117.71484375 C17.18052816 111.40818364 22.33435071 105.14301029 27.68359375 99.02734375 C28.43898438 98.16109375 29.194375 97.29484375 29.97265625 96.40234375 C37.44661649 88.38902555 46.44787367 82.78305779 55.68359375 77.02734375 C56.66972656 76.41101074 57.65585938 75.79467773 58.671875 75.15966797 C76.68528634 63.9685838 93.99712451 54.09823122 114.68359375 49.02734375 C115.95460938 48.70765625 117.225625 48.38796875 118.53515625 48.05859375 C126.5780241 46.28949043 134.27841391 45.75560141 142.49609375 45.71484375 C143.93891724 45.70650513 143.93891724 45.70650513 145.41088867 45.69799805 C152.29767201 45.77006259 152.29767201 45.77006259 155.68359375 48.02734375 C155.46743408 48.53894043 155.25127441 49.05053711 155.02856445 49.57763672 C150.01025485 61.54427248 145.71708145 73.40616309 142.68359375 86.02734375 C142.50344727 86.76742676 142.32330078 87.50750977 142.13769531 88.27001953 C140.81086473 93.82567271 139.68373157 99.40398822 138.68359375 105.02734375 C138.53116211 105.88408691 138.37873047 106.74083008 138.22167969 107.62353516 C135.97819919 120.88817416 135.39682369 134.04233566 135.37109375 147.46484375 C135.36571594 148.58631302 135.36571594 148.58631302 135.36022949 149.73043823 C135.33721584 158.6373336 135.76036244 167.3449579 136.98796082 176.17344666 C137.62658407 180.85143348 137.76588199 185.31921057 137.68359375 190.02734375 C131.47402606 193.30568694 125.19788643 196.27181587 118.72190857 198.97743225 C107.24615142 203.77674977 96.07303261 209.08413685 84.9597168 214.66625977 C82.09606082 216.10239789 79.22514458 217.52324284 76.35351562 218.94335938 C64.05800255 225.06682354 52.49300104 231.42077305 42.05859375 240.46484375 C41.51992676 240.92874512 40.98125977 241.39264648 40.42626953 241.87060547 C36.26988148 245.4657519 32.20172459 249.15762473 28.13671875 252.85546875 C25.58394785 255.11556528 22.96341698 257.26331475 20.30859375 259.40234375 C9.94366519 267.82018828 0.64464955 276.88243492 -8.0390625 287.04296875 C-11.92059648 291.55766075 -16.03317663 295.78106794 -20.26904297 299.96069336 C-23.50166877 303.16613092 -26.50725457 306.48698151 -29.453125 309.953125 C-31.7357694 312.49418197 -34.17625796 314.83766157 -36.62890625 317.21484375 C-45.92257905 326.38016404 -52.88088122 336.76424124 -59.71899414 347.80664062 C-64.7834568 355.92009186 -70.49065139 363.45244325 -76.31640625 371.02734375 C-95.98451003 396.61810252 -107.30403822 423.03025597 -116.76806641 453.87939453 C-117.06245605 454.80993652 -117.3568457 455.74047852 -117.66015625 456.69921875 C-117.90958984 457.51487305 -118.15902344 458.33052734 -118.41601562 459.17089844 C-118.71314453 459.78352539 -119.01027344 460.39615234 -119.31640625 461.02734375 C-120.30640625 461.35734375 -121.29640625 461.68734375 -122.31640625 462.02734375 C-123.9702618 446.57258966 -124.60824251 431.28619889 -124.5222168 415.74682617 C-124.50386298 412.33179247 -124.50170896 408.91703134 -124.50195312 405.50195312 C-124.48275239 393.79140298 -124.23875758 382.13185534 -123.54077148 370.44165039 C-123.30972604 366.44540845 -123.25692457 362.45918502 -123.25013733 358.45672607 C-123.06042725 351.0132302 -121.64302533 346.46521691 -116.2175293 341.23583984 C-113.56781554 338.91977482 -110.85474133 336.69708645 -108.10009766 334.50732422 C-81.99024817 312.84322518 -68.24611312 264.26610398 -65.09765625 231.76953125 C-64.46403643 217.46028363 -69.47759466 200.38276142 -78.31640625 189.02734375 C-82.77629505 184.846198 -87.67461878 183.15932048 -93.734375 182.82421875 C-99.84529604 183.30495687 -105.08410087 186.23361615 -110.25390625 189.33984375 C-111.26453125 189.89671875 -112.27515625 190.45359375 -113.31640625 191.02734375 C-114.30640625 190.69734375 -115.29640625 190.36734375 -116.31640625 190.02734375 C-117.94915209 144.5825845 -101.56539007 96.58420901 -89.06640625 53.46484375 C-88.63725418 51.97652039 -88.63725418 51.97652039 -88.19943237 50.45812988 C-85.29109643 40.41128435 -82.23532725 30.44629893 -78.65234375 20.6171875 C-78.37912292 19.86320175 -78.1059021 19.109216 -77.82440186 18.3323822 C-73.99460244 8.0944907 -68.9549706 -2.78747438 -59.44140625 -8.78515625 C-43.55458622 -14.72574066 -14.1984785 -8.44550252 0 0 Z " fill="#FEF576" transform="translate(2107.31640625,545.97265625)"/>
<path d="M0 0 C8.81305402 7.8338258 10.45798365 24.06112454 11.22265625 35.26123047 C11.61473198 42.83684263 11.84287128 50.41615217 12 58 C19.65436341 53.66662739 27.23255597 49.22037971 34.1875 43.8125 C38.9944579 40.15332592 43.47631231 37.40559266 49.5 36.4375 C54.07031782 37.17201536 57.51185732 38.95288685 61 42 C64.35971709 47.0888223 63.68939219 53.18435821 63 59 C60.88760817 67.28245364 57.39924543 75.18071471 54 83 C54.66 83.03738281 55.32 83.07476563 56 83.11328125 C66.80002002 83.83047008 77.5064217 85.23934714 88.23486328 86.64453125 C90.5912405 86.94745243 92.94826146 87.23018241 95.30859375 87.5 C112.42387131 89.59957403 112.42387131 89.59957403 118 96 C118.99 97.485 118.99 97.485 120 99 C120.45375 99.66 120.9075 100.32 121.375 101 C122.5268189 104.68582048 121.64195006 107.56668047 120.09375 111.0234375 C117.16006201 116.35561364 113.79552389 118.95905976 108 121 C103.64202944 121.70265009 99.29800126 121.88071195 94.890625 122.046875 C93.64625671 122.10780334 92.40188843 122.16873169 91.11981201 122.23150635 C87.83387243 122.38904045 84.54775603 122.53098865 81.26080322 122.66534424 C77.91409151 122.80624238 74.56850948 122.96891743 71.22265625 123.12890625 C52.67089484 124 52.67089484 124 47 124 C47.32798584 124.52432617 47.65597168 125.04865234 47.99389648 125.58886719 C49.48063985 127.97250608 50.95913017 130.36115953 52.4375 132.75 C52.95376953 133.575 53.47003906 134.4 54.00195312 135.25 C54.74155273 136.44882812 54.74155273 136.44882812 55.49609375 137.671875 C55.95169678 138.4050293 56.4072998 139.13818359 56.87670898 139.89355469 C59.16365869 144.18214456 59.33277829 148.17471486 59 153 C57.26759293 157.71599702 54.37906971 162.35879292 50 165 C42.26721643 167.0487797 35.53088609 164.67385191 28 162.5625 C26.74832031 162.22412109 25.49664062 161.88574219 24.20703125 161.53710938 C21.13421229 160.70439889 18.06571857 159.85841393 15 159 C13.70984004 162.66477326 12.69720955 166.14813402 12.140625 169.9921875 C11.9977002 170.93271973 11.85477539 171.87325195 11.70751953 172.84228516 C11.55653809 173.84308105 11.40555664 174.84387695 11.25 175.875 C3.73286583 222.86250439 3.73286583 222.86250439 -9.265625 232.86328125 C-12.7046713 235.11725078 -14.86362889 235.54631317 -19 235 C-25.41745926 231.43776626 -27.04678241 226.75484456 -29 220 C-29.6779132 217.05046749 -30.19567299 214.08781606 -30.68359375 211.1015625 C-30.82410156 210.27622513 -30.96460938 209.45088776 -31.109375 208.60054016 C-31.55945353 205.94320567 -31.99884938 203.28424263 -32.4375 200.625 C-32.74519761 198.7910422 -33.0532239 196.95713952 -33.36157227 195.12329102 C-35.76080504 180.7761596 -37.9815941 166.40591513 -40 152 C-42.81304297 152.45518495 -45.62547771 152.91357946 -48.4375 153.375 C-49.26556152 153.5100293 -50.09362305 153.64505859 -50.94677734 153.78417969 C-55.05378533 154.46531042 -59.09126926 155.20765542 -63.125 156.25 C-68.02368619 157.19813281 -72.34067268 157.65340786 -76.796875 154.8828125 C-79.75330595 152.5035895 -81.72562402 150.68367077 -82.34375 146.890625 C-82.81705112 138.89183611 -80.30957713 133.66977403 -76.53125 126.87109375 C-74.84313725 124.24820006 -74.84313725 124.24820006 -75 122 C-82.37649194 119.58912648 -89.74938429 118.01942809 -97.375 116.625 C-119.3563331 112.40629533 -119.3563331 112.40629533 -126 105 C-127.22485812 102.55028376 -127.16722808 100.85765539 -127.1875 98.125 C-127.20167969 97.26132812 -127.21585937 96.39765625 -127.23046875 95.5078125 C-126.89321486 91.83803291 -125.95743542 89.8439463 -123.1875 87.40234375 C-117.6204471 83.67440654 -112.44820826 81.68081258 -106 80 C-104.47468193 79.51385309 -102.95360556 79.01415754 -101.4375 78.5 C-100.69371094 78.2525 -99.94992188 78.005 -99.18359375 77.75 C-97.79290641 77.27233995 -96.40891054 76.7743754 -95.03515625 76.25 C-87.28352629 73.39335326 -79.12357391 72.31506765 -71 71 C-71.3609375 70.09121094 -71.721875 69.18242188 -72.09375 68.24609375 C-75.76451076 58.51446137 -78.2799114 48.74244025 -75.23046875 38.38671875 C-73.56383636 34.75465533 -71.70426551 31.60184454 -68 30 C-61.19771105 29.13525064 -56.62343679 30.59122856 -50.875 34.125 C-50.18212891 34.53226318 -49.48925781 34.93952637 -48.77539062 35.35913086 C-44.0969248 38.16587839 -39.91650833 41.18140438 -36 45 C-33.90078261 41.85117391 -33.09443645 39.3373606 -32.046875 35.71484375 C-31.67433594 34.46123047 -31.30179687 33.20761719 -30.91796875 31.91601562 C-30.33527908 29.93891113 -29.75671854 27.96090399 -29.18798828 25.97973633 C-22.95754816 4.37452889 -22.95754816 4.37452889 -14 -1 C-8.64523341 -3.7368807 -5.03478821 -2.8415221 0 0 Z " fill="#272727" transform="translate(234,656)"/>
<path d="M0 0 C0.66 0 1.32 0 2 0 C4.12711756 8.39782533 4.39428066 16.68734042 4.5625 25.3125 C4.62075709 27.97545367 4.68617543 30.63803022 4.75390625 33.30078125 C4.77783447 34.46778564 4.8017627 35.63479004 4.82641602 36.8371582 C4.98277728 39.68618791 5.22909875 42.2538402 6 45 C7.3153341 45.70151152 8.65117592 46.36525925 10 47 C10.45375 47.845625 10.9075 48.69125 11.375 49.5625 C12.79720887 52.24612539 12.79720887 52.24612539 15.70703125 52.859375 C19.92979406 53.03970651 21.73096604 51.89647004 25.3125 49.6875 C25.90063477 49.33300781 26.48876953 48.97851562 27.09472656 48.61328125 C28.37591995 47.84043449 29.65295366 47.06066013 30.92626953 46.27490234 C33.91616947 44.436751 36.93294662 42.64526392 39.95385742 40.85864258 C41.46921971 39.9619928 42.98119598 39.05959252 44.48950195 38.15112305 C49.77639304 35 49.77639304 35 52 35 C51.07302879 39.61304497 50.03603274 44.02907187 48.375 48.4375 C46.3781514 54.25484975 45.96418048 60.02201889 48 65.875 C53.04515102 71.23547295 59.96946061 72.76314585 67 74 C67 74.66 67 75.32 67 76 C66.30438965 75.98428955 65.6087793 75.9685791 64.89208984 75.95239258 C61.71981029 75.88977137 58.54766115 75.85092323 55.375 75.8125 C53.73337891 75.77479492 53.73337891 75.77479492 52.05859375 75.73632812 C44.09057398 75.62036379 44.09057398 75.62036379 37 79 C34.10814812 83.33777782 34.33064481 86.90738007 35 92 C37.14478884 99.08792877 40.47458629 105.22381067 44.86328125 111.16015625 C46 113 46 113 46 116 C44.90042969 115.71125 43.80085937 115.4225 42.66796875 115.125 C28.5723146 111.14421242 28.5723146 111.14421242 14.5625 113.5 C8.74368669 119.17689103 7.21317951 126.32948246 5.89453125 134.1171875 C5.72499435 135.0555545 5.55545746 135.99392151 5.38078308 136.96072388 C4.84639119 139.93021381 4.32876609 142.90231043 3.8125 145.875 C3.28228129 148.86844141 2.74860286 151.86122809 2.21208191 154.85354614 C1.88047971 156.70911188 1.55312131 158.56544202 1.23042297 160.4225769 C1.08324326 161.25749664 0.93606354 162.09241638 0.78442383 162.95263672 C0.65659012 163.68795624 0.52875641 164.42327576 0.39704895 165.18087769 C0 167 0 167 -1 169 C-1.99 169 -2.98 169 -4 169 C-4.07881409 168.42307907 -4.15762817 167.84615814 -4.23883057 167.25175476 C-5.06830529 161.19789115 -5.91487152 155.14658658 -6.77099609 149.09643555 C-7.08748024 146.84410723 -7.39973425 144.59118 -7.70751953 142.33764648 C-8.15301851 139.08146709 -8.61414879 135.82781055 -9.078125 132.57421875 C-9.21059631 131.58105148 -9.34306763 130.58788422 -9.47955322 129.56462097 C-10.61209996 121.78853681 -11.9956607 113.15089243 -17.5625 107.3125 C-25.50504848 104.27989058 -33.89445542 106.11892086 -42.0546875 107.5625 C-44.75937553 107.96425737 -47.27189321 108.08053452 -50 108 C-48.8694871 104.71123519 -47.40062095 102.08687998 -45.4375 99.25 C-42.70562803 94.96169058 -41.70780583 91.08417849 -42 86 C-42.97020006 82.88149981 -43.93482138 81.59304147 -46.78955078 80.00366211 C-52.73637488 77.31041754 -58.62323287 75.71376879 -65 74.375 C-65.93328125 74.17132812 -66.8665625 73.96765625 -67.828125 73.7578125 C-69.66450903 73.35770648 -71.50173082 72.96142262 -73.33984375 72.56933594 C-77.2318586 71.73635332 -81.11557722 70.86762722 -85 70 C-84.67 69.01 -84.34 68.02 -84 67 C-81.30937563 65.94209542 -78.77991017 65.11771973 -76 64.375 C-75.19852539 64.15408691 -74.39705078 63.93317383 -73.57128906 63.70556641 C-67.26721913 62.07954602 -61.16359871 61.39665551 -54.66015625 61.36474609 C-50.03440755 61.29772272 -46.93762585 60.43480415 -43 58 C-40.73647112 55.1705889 -39.93439628 53.2285787 -40.12890625 49.5859375 C-41.12686107 43.34647221 -43.05649303 37.46374195 -45.1953125 31.53125 C-46 29 -46 29 -46 26 C-42.49172085 27.52079073 -40.04728354 29.5995673 -37.25 32.1875 C-36.37214844 32.98414063 -35.49429688 33.78078125 -34.58984375 34.6015625 C-32.97756309 36.09468516 -31.38280906 37.60725405 -29.81640625 39.1484375 C-26.59491361 42.22549675 -24.74142607 43.83663493 -20.3125 44.8125 C-16.83072636 43.95848005 -15.18381418 43.04474692 -13.10546875 40.10546875 C-10.97614827 36.04997851 -9.84330319 31.71393174 -8.63916016 27.31152344 C-7.55353955 23.38537526 -6.4118248 19.47551257 -5.27490234 15.56396484 C-4.63634799 13.36514781 -4.00251024 11.16495524 -3.37353516 8.96337891 C-3.08140137 7.94937012 -2.78926758 6.93536133 -2.48828125 5.890625 C-2.22571533 4.97313477 -1.96314941 4.05564453 -1.69262695 3.11035156 C-1 1 -1 1 0 0 Z " fill="#FDF476" transform="translate(223,684)"/>
<path d="M0 0 C4.56178584 4.27611628 7.09216605 9.65719041 7.30859375 15.93359375 C7.08126605 26.00096318 2.05970494 32.98040401 -4.81640625 39.91015625 C-20.56096813 54.9577955 -39.35297974 60.57147465 -60.00390625 65.87109375 C-60.8635498 66.10135254 -61.72319336 66.33161133 -62.60888672 66.56884766 C-78.57859722 70.80504409 -97.96482668 72.88415926 -114.00390625 67.87109375 C-116.48177571 65.91823144 -116.9397868 65.13922962 -117.69140625 61.99609375 C-117.82200535 60.62335212 -117.92127132 59.24755558 -118.00390625 57.87109375 C-118.07996094 56.88238281 -118.15601563 55.89367187 -118.234375 54.875 C-118.83498171 41.0935108 -111.74669704 31.86889281 -103.00390625 21.87109375 C-79.38493477 -3.06650668 -30.67974129 -23.42541823 0 0 Z M-84.00390625 27.87109375 C-84.7721875 28.40089844 -85.54046875 28.93070313 -86.33203125 29.4765625 C-86.88375 29.93675781 -87.43546875 30.39695312 -88.00390625 30.87109375 C-88.00390625 31.53109375 -88.00390625 32.19109375 -88.00390625 32.87109375 C-88.66390625 32.87109375 -89.32390625 32.87109375 -90.00390625 32.87109375 C-92.22159315 35.36757557 -94.07171598 38.15025439 -96.00390625 40.87109375 C-96.78765625 41.90234375 -97.57140625 42.93359375 -98.37890625 43.99609375 C-100.24124211 47.29099566 -100.13761577 49.15808334 -100.00390625 52.87109375 C-87.76811832 54.12604636 -76.59752958 52.01130671 -64.75390625 49.18359375 C-64.03237366 49.01359863 -63.31084106 48.84360352 -62.56744385 48.66845703 C-42.78105195 43.96096402 -22.68067009 37.73014647 -10.66796875 19.88671875 C-9.75411557 17.11290557 -9.95570247 15.58931711 -11.00390625 12.87109375 C-13.11552644 11.43152816 -13.11552644 11.43152816 -15.75390625 10.62109375 C-16.615 10.3065625 -17.47609375 9.99203125 -18.36328125 9.66796875 C-42.18137722 2.48025932 -65.10393544 14.29802554 -84.00390625 27.87109375 Z " fill="#282827" transform="translate(1090.00390625,679.12890625)"/>
<path d="M0 0 C2.9375 2.5625 2.9375 2.5625 5 5 C5.556875 5.639375 6.11375 6.27875 6.6875 6.9375 C10.4867943 12.90781961 10.44108159 18.27811286 9 25 C1.46917239 49.31288741 -22.02294935 65.51574714 -43.421875 77.28515625 C-55.48803234 83.06795436 -72.23005293 90.37542073 -85.6796875 86.16015625 C-91.79776984 83.46420602 -95.36211459 80.17142492 -98 74 C-99.75152875 68.37064971 -99.18448783 62.33156995 -99.1875 56.5 C-99.19974609 55.283125 -99.21199219 54.06625 -99.22460938 52.8125 C-99.24451782 40.38962945 -98.42261862 30.24857945 -91 20 C-90.55785156 19.37480469 -90.11570312 18.74960937 -89.66015625 18.10546875 C-78.70102649 4.03331083 -60.58469125 -2.38678703 -44 -7 C-43.31679688 -7.20367188 -42.63359375 -7.40734375 -41.9296875 -7.6171875 C-28.72092135 -10.23755002 -11.1863761 -7.46492421 0 0 Z M-74 27 C-75.33563611 30.16701423 -75.33563611 30.16701423 -76 33 C-76.66 33.33 -77.32 33.66 -78 34 C-78 34.66 -78 35.32 -78 36 C-78.99 36.33 -79.98 36.66 -81 37 C-81.94992546 43.45796098 -82.21527642 49.78880804 -82.25 56.3125 C-82.270625 57.30056641 -82.29125 58.28863281 -82.3125 59.30664062 C-82.31765625 60.25345703 -82.3228125 61.20027344 -82.328125 62.17578125 C-82.3374707 63.03083252 -82.34681641 63.88588379 -82.35644531 64.7668457 C-82.16386986 67.06564882 -82.16386986 67.06564882 -80.67211914 68.81103516 C-78.9223967 70.31491441 -78.9223967 70.31491441 -75.91796875 69.84765625 C-60.39186769 66.57985906 -47.78150237 60.24801444 -35 51 C-34.4126709 50.57638184 -33.8253418 50.15276367 -33.22021484 49.71630859 C-16.10935253 37.26790194 -16.10935253 37.26790194 -7.3125 18.625 C-7.78561444 15.75109339 -7.78561444 15.75109339 -10.57421875 13.9453125 C-14.28425006 11.83859005 -17.31529125 11.0154955 -21.5 10.25 C-22.7684375 10.00765625 -24.036875 9.7653125 -25.34375 9.515625 C-41.46067896 7.24272476 -62.88681013 14.8284111 -74 27 Z " fill="#282828" transform="translate(710,612)"/>
<path d="M0 0 C4.8559271 4.20537227 7.56865212 9.54921699 8.35546875 15.84375 C8.96465044 29.41039092 3.86173073 40.9191952 -5 51 C-12.03062844 58.39744384 -20.29667185 63.80718369 -29 69 C-29.66402832 69.39783691 -30.32805664 69.79567383 -31.01220703 70.20556641 C-45.17014183 78.61552102 -59.84293053 86.07421841 -76.82421875 82.38671875 C-84.24342006 79.80760895 -88.76799768 75.37128052 -92.31640625 68.421875 C-97.78444882 55.08518581 -94.86006794 39.64409119 -89.6875 26.5625 C-86.11332424 18.70998252 -82.06709274 10.91560642 -74 7 C-72.89914062 6.70738281 -71.79828125 6.41476562 -70.6640625 6.11328125 C-66.80693367 4.94133912 -64.14735252 3.36514174 -60.8125 1.125 C-43.39783422 -9.8794967 -17.8734871 -11.51281553 0 0 Z M-58 20 C-64.47627047 24.93910122 -64.47627047 24.93910122 -67.6875 25.3125 C-70.41161273 25.84848177 -70.41161273 25.84848177 -72.125 29.3125 C-76.05344662 38.21909963 -80.35175492 51.50142396 -76.875 61.0625 C-75.24103767 64.0166607 -75.24103767 64.0166607 -72.9375 65.5 C-56.76975251 68.25195702 -40.73834765 56.55208891 -28 48 C-19.4734627 41.76654902 -11.50805497 33.5380461 -9 23 C-8.5575776 17.64223231 -8.5575776 17.64223231 -11 13 C-27.08835112 5.51059517 -44.65616046 9.75624439 -58 20 Z " fill="#282828" transform="translate(725,809)"/>
<path d="M0 0 C7.46417778 6.29309811 14.85522001 13.56566004 18 23 C18.47030498 29.23154095 17.54372651 32.93396165 13.53515625 37.765625 C-7.70494125 59.13602985 -46.01311368 66.72237044 -75.02734375 67.15625 C-79.34090259 66.98659184 -81.33240846 66.18494815 -85 64 C-87.08522374 63.04574507 -89.17258758 62.09715556 -91.265625 61.16015625 C-93.44441967 59.70271928 -94.1049846 58.44264619 -95 56 C-93.50897048 39.22591785 -85.03188424 20.58703973 -74 8 C-73.18402344 7.06027344 -73.18402344 7.06027344 -72.3515625 6.1015625 C-54.59862671 -12.98492716 -20.94934969 -14.90963467 0 0 Z M-60.86328125 18.8984375 C-67.92743897 27.32530414 -73.80798421 37.86308411 -74 49 C-47.67509527 49.74115999 -21.7840087 41.52267246 0 27 C-2.38374217 20.07751643 -7.55500333 15.0258184 -14 11.625 C-29.53459924 4.82108638 -48.66630015 6.47132468 -60.86328125 18.8984375 Z " fill="#282828" transform="translate(1878,563)"/>
</svg>
